%TF.GenerationSoftware,KiCad,Pcbnew,(5.1.6-0-10_14)*%
%TF.CreationDate,2022-03-24T08:42:33-07:00*%
%TF.ProjectId,pockels_modulator_pcb,706f636b-656c-4735-9f6d-6f64756c6174,rev?*%
%TF.SameCoordinates,Original*%
%TF.FileFunction,Paste,Top*%
%TF.FilePolarity,Positive*%
%FSLAX46Y46*%
G04 Gerber Fmt 4.6, Leading zero omitted, Abs format (unit mm)*
G04 Created by KiCad (PCBNEW (5.1.6-0-10_14)) date 2022-03-24 08:42:33*
%MOMM*%
%LPD*%
G01*
G04 APERTURE LIST*
%ADD10R,5.080000X1.600000*%
%ADD11R,1.500000X5.000000*%
%ADD12R,5.000000X5.000000*%
G04 APERTURE END LIST*
D10*
%TO.C,J1*%
X191770000Y-102719000D03*
X191770000Y-97179000D03*
X191770000Y-99949000D03*
%TD*%
%TO.C,R1*%
G36*
G01*
X195003000Y-104832999D02*
X195003000Y-105733001D01*
G75*
G02*
X194753001Y-105983000I-249999J0D01*
G01*
X194102999Y-105983000D01*
G75*
G02*
X193853000Y-105733001I0J249999D01*
G01*
X193853000Y-104832999D01*
G75*
G02*
X194102999Y-104583000I249999J0D01*
G01*
X194753001Y-104583000D01*
G75*
G02*
X195003000Y-104832999I0J-249999D01*
G01*
G37*
G36*
G01*
X197053000Y-104832999D02*
X197053000Y-105733001D01*
G75*
G02*
X196803001Y-105983000I-249999J0D01*
G01*
X196152999Y-105983000D01*
G75*
G02*
X195903000Y-105733001I0J249999D01*
G01*
X195903000Y-104832999D01*
G75*
G02*
X196152999Y-104583000I249999J0D01*
G01*
X196803001Y-104583000D01*
G75*
G02*
X197053000Y-104832999I0J-249999D01*
G01*
G37*
%TD*%
D11*
%TO.C,C1*%
X195936000Y-100000000D03*
D12*
X200000000Y-100000000D03*
%TD*%
%TO.C,D2*%
G36*
G01*
X203249000Y-104832999D02*
X203249000Y-105733001D01*
G75*
G02*
X202999001Y-105983000I-249999J0D01*
G01*
X202348999Y-105983000D01*
G75*
G02*
X202099000Y-105733001I0J249999D01*
G01*
X202099000Y-104832999D01*
G75*
G02*
X202348999Y-104583000I249999J0D01*
G01*
X202999001Y-104583000D01*
G75*
G02*
X203249000Y-104832999I0J-249999D01*
G01*
G37*
G36*
G01*
X205299000Y-104832999D02*
X205299000Y-105733001D01*
G75*
G02*
X205049001Y-105983000I-249999J0D01*
G01*
X204398999Y-105983000D01*
G75*
G02*
X204149000Y-105733001I0J249999D01*
G01*
X204149000Y-104832999D01*
G75*
G02*
X204398999Y-104583000I249999J0D01*
G01*
X205049001Y-104583000D01*
G75*
G02*
X205299000Y-104832999I0J-249999D01*
G01*
G37*
%TD*%
%TO.C,D1*%
G36*
G01*
X200085000Y-105733001D02*
X200085000Y-104832999D01*
G75*
G02*
X200334999Y-104583000I249999J0D01*
G01*
X200985001Y-104583000D01*
G75*
G02*
X201235000Y-104832999I0J-249999D01*
G01*
X201235000Y-105733001D01*
G75*
G02*
X200985001Y-105983000I-249999J0D01*
G01*
X200334999Y-105983000D01*
G75*
G02*
X200085000Y-105733001I0J249999D01*
G01*
G37*
G36*
G01*
X198035000Y-105733001D02*
X198035000Y-104832999D01*
G75*
G02*
X198284999Y-104583000I249999J0D01*
G01*
X198935001Y-104583000D01*
G75*
G02*
X199185000Y-104832999I0J-249999D01*
G01*
X199185000Y-105733001D01*
G75*
G02*
X198935001Y-105983000I-249999J0D01*
G01*
X198284999Y-105983000D01*
G75*
G02*
X198035000Y-105733001I0J249999D01*
G01*
G37*
%TD*%
M02*
