%TF.GenerationSoftware,KiCad,Pcbnew,(5.1.6-0-10_14)*%
%TF.CreationDate,2020-08-07T17:14:13-07:00*%
%TF.ProjectId,pockels_modulator_pcb,706f636b-656c-4735-9f6d-6f64756c6174,rev?*%
%TF.SameCoordinates,Original*%
%TF.FileFunction,Soldermask,Top*%
%TF.FilePolarity,Negative*%
%FSLAX46Y46*%
G04 Gerber Fmt 4.6, Leading zero omitted, Abs format (unit mm)*
G04 Created by KiCad (PCBNEW (5.1.6-0-10_14)) date 2020-08-07 17:14:13*
%MOMM*%
%LPD*%
G01*
G04 APERTURE LIST*
%ADD10C,4.100000*%
%ADD11C,2.100000*%
%ADD12R,5.180000X1.700000*%
%ADD13R,10.100000X10.100000*%
%ADD14R,1.600000X1.600000*%
G04 APERTURE END LIST*
D10*
%TO.C,H4*%
X208000000Y-108000000D03*
%TD*%
%TO.C,H3*%
X192000000Y-108000000D03*
%TD*%
%TO.C,H2*%
X192000000Y-92000000D03*
%TD*%
%TO.C,H1*%
X208000000Y-92000000D03*
%TD*%
D11*
%TO.C,TP2*%
X181991000Y-90932000D03*
%TD*%
%TO.C,TP1*%
X181737000Y-109093000D03*
%TD*%
%TO.C,R1*%
G36*
G01*
X188819262Y-96891000D02*
X187862738Y-96891000D01*
G75*
G02*
X187591000Y-96619262I0J271738D01*
G01*
X187591000Y-95912738D01*
G75*
G02*
X187862738Y-95641000I271738J0D01*
G01*
X188819262Y-95641000D01*
G75*
G02*
X189091000Y-95912738I0J-271738D01*
G01*
X189091000Y-96619262D01*
G75*
G02*
X188819262Y-96891000I-271738J0D01*
G01*
G37*
G36*
G01*
X188819262Y-98941000D02*
X187862738Y-98941000D01*
G75*
G02*
X187591000Y-98669262I0J271738D01*
G01*
X187591000Y-97962738D01*
G75*
G02*
X187862738Y-97691000I271738J0D01*
G01*
X188819262Y-97691000D01*
G75*
G02*
X189091000Y-97962738I0J-271738D01*
G01*
X189091000Y-98669262D01*
G75*
G02*
X188819262Y-98941000I-271738J0D01*
G01*
G37*
%TD*%
D12*
%TO.C,J1*%
X179705000Y-103100000D03*
X179705000Y-97560000D03*
X179705000Y-100330000D03*
%TD*%
%TO.C,D2*%
G36*
G01*
X189601000Y-100613738D02*
X189601000Y-101570262D01*
G75*
G02*
X189329262Y-101842000I-271738J0D01*
G01*
X188622738Y-101842000D01*
G75*
G02*
X188351000Y-101570262I0J271738D01*
G01*
X188351000Y-100613738D01*
G75*
G02*
X188622738Y-100342000I271738J0D01*
G01*
X189329262Y-100342000D01*
G75*
G02*
X189601000Y-100613738I0J-271738D01*
G01*
G37*
G36*
G01*
X191651000Y-100613738D02*
X191651000Y-101570262D01*
G75*
G02*
X191379262Y-101842000I-271738J0D01*
G01*
X190672738Y-101842000D01*
G75*
G02*
X190401000Y-101570262I0J271738D01*
G01*
X190401000Y-100613738D01*
G75*
G02*
X190672738Y-100342000I271738J0D01*
G01*
X191379262Y-100342000D01*
G75*
G02*
X191651000Y-100613738I0J-271738D01*
G01*
G37*
%TD*%
%TO.C,D1*%
G36*
G01*
X186582000Y-101570262D02*
X186582000Y-100613738D01*
G75*
G02*
X186853738Y-100342000I271738J0D01*
G01*
X187560262Y-100342000D01*
G75*
G02*
X187832000Y-100613738I0J-271738D01*
G01*
X187832000Y-101570262D01*
G75*
G02*
X187560262Y-101842000I-271738J0D01*
G01*
X186853738Y-101842000D01*
G75*
G02*
X186582000Y-101570262I0J271738D01*
G01*
G37*
G36*
G01*
X184532000Y-101570262D02*
X184532000Y-100613738D01*
G75*
G02*
X184803738Y-100342000I271738J0D01*
G01*
X185510262Y-100342000D01*
G75*
G02*
X185782000Y-100613738I0J-271738D01*
G01*
X185782000Y-101570262D01*
G75*
G02*
X185510262Y-101842000I-271738J0D01*
G01*
X184803738Y-101842000D01*
G75*
G02*
X184532000Y-101570262I0J271738D01*
G01*
G37*
%TD*%
D13*
%TO.C,C1*%
X200000000Y-100000000D03*
D14*
X194000000Y-100000000D03*
%TD*%
M02*
