%TF.GenerationSoftware,KiCad,Pcbnew,(5.1.6-0-10_14)*%
%TF.CreationDate,2021-01-05T12:33:51-08:00*%
%TF.ProjectId,pockels_modulator_pcb,706f636b-656c-4735-9f6d-6f64756c6174,rev?*%
%TF.SameCoordinates,Original*%
%TF.FileFunction,Soldermask,Top*%
%TF.FilePolarity,Negative*%
%FSLAX46Y46*%
G04 Gerber Fmt 4.6, Leading zero omitted, Abs format (unit mm)*
G04 Created by KiCad (PCBNEW (5.1.6-0-10_14)) date 2021-01-05 12:33:51*
%MOMM*%
%LPD*%
G01*
G04 APERTURE LIST*
%ADD10C,0.600000*%
%ADD11R,10.100000X10.100000*%
%ADD12R,1.600000X1.600000*%
%ADD13R,4.600000X1.400000*%
%ADD14R,4.000000X1.900000*%
%ADD15C,4.100000*%
%ADD16C,2.100000*%
%ADD17R,5.180000X1.700000*%
%ADD18R,1.600000X1.400000*%
%ADD19R,0.400000X2.850000*%
G04 APERTURE END LIST*
D10*
%TO.C,C1*%
X195936000Y-95936000D03*
X195936000Y-96952000D03*
X195936000Y-97968000D03*
X195936000Y-98984000D03*
X195936000Y-100000000D03*
X195936000Y-101016000D03*
X195936000Y-102032000D03*
X195936000Y-103048000D03*
X195936000Y-104064000D03*
X196952000Y-104064000D03*
X196952000Y-103048000D03*
X196952000Y-102032000D03*
X196952000Y-101016000D03*
X196952000Y-100000000D03*
X196952000Y-98984000D03*
X196952000Y-97968000D03*
X196952000Y-96952000D03*
X196952000Y-95936000D03*
X197968000Y-95936000D03*
X197968000Y-96952000D03*
X197968000Y-97968000D03*
X197968000Y-98984000D03*
X197968000Y-100000000D03*
X197968000Y-101016000D03*
X197968000Y-102032000D03*
X197968000Y-103048000D03*
X197968000Y-104064000D03*
X198984000Y-104064000D03*
X198984000Y-103048000D03*
X198984000Y-102032000D03*
X198984000Y-101016000D03*
X198984000Y-100000000D03*
X198984000Y-98984000D03*
X198984000Y-97968000D03*
X198984000Y-96952000D03*
X198984000Y-95936000D03*
X200000000Y-95936000D03*
X201016000Y-95936000D03*
X202032000Y-95936000D03*
X203048000Y-95936000D03*
X204064000Y-95936000D03*
X204064000Y-96952000D03*
X203048000Y-96952000D03*
X202032000Y-96952000D03*
X201016000Y-96952000D03*
X200000000Y-96952000D03*
X200000000Y-97968000D03*
X201016000Y-97968000D03*
X202032000Y-97968000D03*
X203048000Y-97968000D03*
X204064000Y-97968000D03*
X204064000Y-98984000D03*
X203048000Y-98984000D03*
X202032000Y-98984000D03*
X201016000Y-98984000D03*
X200000000Y-98984000D03*
X204064000Y-104064000D03*
X203048000Y-104064000D03*
X202032000Y-104064000D03*
X201016000Y-104064000D03*
X200000000Y-104064000D03*
X200000000Y-103048000D03*
X201016000Y-103048000D03*
X202032000Y-103048000D03*
X203048000Y-103048000D03*
X204064000Y-103048000D03*
X204064000Y-102032000D03*
X203048000Y-102032000D03*
X202032000Y-102032000D03*
X201016000Y-102032000D03*
X200000000Y-102032000D03*
X200000000Y-101016000D03*
X201016000Y-101016000D03*
X202032000Y-101016000D03*
X203048000Y-101016000D03*
X204064000Y-101016000D03*
X204064000Y-100000000D03*
X203048000Y-100000000D03*
X202032000Y-100000000D03*
X201016000Y-100000000D03*
X200000000Y-100000000D03*
D11*
X200000000Y-100000000D03*
D12*
X194000000Y-100000000D03*
%TD*%
D13*
%TO.C,J2*%
X212661500Y-94036500D03*
X212661500Y-96536500D03*
X212661500Y-99036500D03*
X212661500Y-101536500D03*
X212661500Y-104036500D03*
X212661500Y-106536500D03*
D14*
X219148100Y-90836500D03*
X219161500Y-109736500D03*
%TD*%
D15*
%TO.C,H4*%
X208000000Y-108000000D03*
%TD*%
%TO.C,H3*%
X192000000Y-108000000D03*
%TD*%
%TO.C,H2*%
X192000000Y-92000000D03*
%TD*%
%TO.C,H1*%
X208000000Y-92000000D03*
%TD*%
D16*
%TO.C,TP2*%
X181991000Y-90932000D03*
%TD*%
%TO.C,TP1*%
X181737000Y-109093000D03*
%TD*%
%TO.C,R1*%
G36*
G01*
X188819262Y-96891000D02*
X187862738Y-96891000D01*
G75*
G02*
X187591000Y-96619262I0J271738D01*
G01*
X187591000Y-95912738D01*
G75*
G02*
X187862738Y-95641000I271738J0D01*
G01*
X188819262Y-95641000D01*
G75*
G02*
X189091000Y-95912738I0J-271738D01*
G01*
X189091000Y-96619262D01*
G75*
G02*
X188819262Y-96891000I-271738J0D01*
G01*
G37*
G36*
G01*
X188819262Y-98941000D02*
X187862738Y-98941000D01*
G75*
G02*
X187591000Y-98669262I0J271738D01*
G01*
X187591000Y-97962738D01*
G75*
G02*
X187862738Y-97691000I271738J0D01*
G01*
X188819262Y-97691000D01*
G75*
G02*
X189091000Y-97962738I0J-271738D01*
G01*
X189091000Y-98669262D01*
G75*
G02*
X188819262Y-98941000I-271738J0D01*
G01*
G37*
%TD*%
D17*
%TO.C,J1*%
X179705000Y-103100000D03*
X179705000Y-97560000D03*
X179705000Y-100330000D03*
%TD*%
%TO.C,D2*%
G36*
G01*
X189601000Y-100613738D02*
X189601000Y-101570262D01*
G75*
G02*
X189329262Y-101842000I-271738J0D01*
G01*
X188622738Y-101842000D01*
G75*
G02*
X188351000Y-101570262I0J271738D01*
G01*
X188351000Y-100613738D01*
G75*
G02*
X188622738Y-100342000I271738J0D01*
G01*
X189329262Y-100342000D01*
G75*
G02*
X189601000Y-100613738I0J-271738D01*
G01*
G37*
G36*
G01*
X191651000Y-100613738D02*
X191651000Y-101570262D01*
G75*
G02*
X191379262Y-101842000I-271738J0D01*
G01*
X190672738Y-101842000D01*
G75*
G02*
X190401000Y-101570262I0J271738D01*
G01*
X190401000Y-100613738D01*
G75*
G02*
X190672738Y-100342000I271738J0D01*
G01*
X191379262Y-100342000D01*
G75*
G02*
X191651000Y-100613738I0J-271738D01*
G01*
G37*
%TD*%
%TO.C,D1*%
G36*
G01*
X186582000Y-101570262D02*
X186582000Y-100613738D01*
G75*
G02*
X186853738Y-100342000I271738J0D01*
G01*
X187560262Y-100342000D01*
G75*
G02*
X187832000Y-100613738I0J-271738D01*
G01*
X187832000Y-101570262D01*
G75*
G02*
X187560262Y-101842000I-271738J0D01*
G01*
X186853738Y-101842000D01*
G75*
G02*
X186582000Y-101570262I0J271738D01*
G01*
G37*
G36*
G01*
X184532000Y-101570262D02*
X184532000Y-100613738D01*
G75*
G02*
X184803738Y-100342000I271738J0D01*
G01*
X185510262Y-100342000D01*
G75*
G02*
X185782000Y-100613738I0J-271738D01*
G01*
X185782000Y-101570262D01*
G75*
G02*
X185510262Y-101842000I-271738J0D01*
G01*
X184803738Y-101842000D01*
G75*
G02*
X184532000Y-101570262I0J271738D01*
G01*
G37*
%TD*%
%TO.C,C2*%
G36*
G01*
X207381000Y-103915738D02*
X207381000Y-104872262D01*
G75*
G02*
X207109262Y-105144000I-271738J0D01*
G01*
X206402738Y-105144000D01*
G75*
G02*
X206131000Y-104872262I0J271738D01*
G01*
X206131000Y-103915738D01*
G75*
G02*
X206402738Y-103644000I271738J0D01*
G01*
X207109262Y-103644000D01*
G75*
G02*
X207381000Y-103915738I0J-271738D01*
G01*
G37*
G36*
G01*
X209431000Y-103915738D02*
X209431000Y-104872262D01*
G75*
G02*
X209159262Y-105144000I-271738J0D01*
G01*
X208452738Y-105144000D01*
G75*
G02*
X208181000Y-104872262I0J271738D01*
G01*
X208181000Y-103915738D01*
G75*
G02*
X208452738Y-103644000I271738J0D01*
G01*
X209159262Y-103644000D01*
G75*
G02*
X209431000Y-103915738I0J-271738D01*
G01*
G37*
%TD*%
%TO.C,R2*%
G36*
G01*
X212989000Y-110460262D02*
X212989000Y-109503738D01*
G75*
G02*
X213260738Y-109232000I271738J0D01*
G01*
X213967262Y-109232000D01*
G75*
G02*
X214239000Y-109503738I0J-271738D01*
G01*
X214239000Y-110460262D01*
G75*
G02*
X213967262Y-110732000I-271738J0D01*
G01*
X213260738Y-110732000D01*
G75*
G02*
X212989000Y-110460262I0J271738D01*
G01*
G37*
G36*
G01*
X210939000Y-110460262D02*
X210939000Y-109503738D01*
G75*
G02*
X211210738Y-109232000I271738J0D01*
G01*
X211917262Y-109232000D01*
G75*
G02*
X212189000Y-109503738I0J-271738D01*
G01*
X212189000Y-110460262D01*
G75*
G02*
X211917262Y-110732000I-271738J0D01*
G01*
X211210738Y-110732000D01*
G75*
G02*
X210939000Y-110460262I0J271738D01*
G01*
G37*
%TD*%
%TO.C,R3*%
G36*
G01*
X212697000Y-89945738D02*
X212697000Y-90902262D01*
G75*
G02*
X212425262Y-91174000I-271738J0D01*
G01*
X211718738Y-91174000D01*
G75*
G02*
X211447000Y-90902262I0J271738D01*
G01*
X211447000Y-89945738D01*
G75*
G02*
X211718738Y-89674000I271738J0D01*
G01*
X212425262Y-89674000D01*
G75*
G02*
X212697000Y-89945738I0J-271738D01*
G01*
G37*
G36*
G01*
X214747000Y-89945738D02*
X214747000Y-90902262D01*
G75*
G02*
X214475262Y-91174000I-271738J0D01*
G01*
X213768738Y-91174000D01*
G75*
G02*
X213497000Y-90902262I0J271738D01*
G01*
X213497000Y-89945738D01*
G75*
G02*
X213768738Y-89674000I271738J0D01*
G01*
X214475262Y-89674000D01*
G75*
G02*
X214747000Y-89945738I0J-271738D01*
G01*
G37*
%TD*%
D10*
%TO.C,U1*%
X208172000Y-99060000D03*
X207372000Y-99060000D03*
D18*
X207772000Y-99060000D03*
D19*
X208522000Y-101510000D03*
X208022000Y-101510000D03*
X207522000Y-101510000D03*
X207022000Y-101510000D03*
X207022000Y-96610000D03*
X207522000Y-96610000D03*
X208022000Y-96610000D03*
X208522000Y-96610000D03*
%TD*%
M02*
