%TF.GenerationSoftware,KiCad,Pcbnew,(5.1.6-0-10_14)*%
%TF.CreationDate,2022-03-24T08:42:33-07:00*%
%TF.ProjectId,pockels_modulator_pcb,706f636b-656c-4735-9f6d-6f64756c6174,rev?*%
%TF.SameCoordinates,Original*%
%TF.FileFunction,Soldermask,Top*%
%TF.FilePolarity,Negative*%
%FSLAX46Y46*%
G04 Gerber Fmt 4.6, Leading zero omitted, Abs format (unit mm)*
G04 Created by KiCad (PCBNEW (5.1.6-0-10_14)) date 2022-03-24 08:42:33*
%MOMM*%
%LPD*%
G01*
G04 APERTURE LIST*
%ADD10C,4.100000*%
%ADD11R,5.180000X1.700000*%
%ADD12R,1.600000X5.100000*%
%ADD13R,5.100000X5.100000*%
%ADD14C,0.600000*%
%ADD15C,2.100000*%
G04 APERTURE END LIST*
D10*
%TO.C,H4*%
X208000000Y-108000000D03*
%TD*%
%TO.C,H1*%
X208000000Y-92000000D03*
%TD*%
D11*
%TO.C,J1*%
X191770000Y-102719000D03*
X191770000Y-97179000D03*
X191770000Y-99949000D03*
%TD*%
%TO.C,R1*%
G36*
G01*
X195053000Y-104804738D02*
X195053000Y-105761262D01*
G75*
G02*
X194781262Y-106033000I-271738J0D01*
G01*
X194074738Y-106033000D01*
G75*
G02*
X193803000Y-105761262I0J271738D01*
G01*
X193803000Y-104804738D01*
G75*
G02*
X194074738Y-104533000I271738J0D01*
G01*
X194781262Y-104533000D01*
G75*
G02*
X195053000Y-104804738I0J-271738D01*
G01*
G37*
G36*
G01*
X197103000Y-104804738D02*
X197103000Y-105761262D01*
G75*
G02*
X196831262Y-106033000I-271738J0D01*
G01*
X196124738Y-106033000D01*
G75*
G02*
X195853000Y-105761262I0J271738D01*
G01*
X195853000Y-104804738D01*
G75*
G02*
X196124738Y-104533000I271738J0D01*
G01*
X196831262Y-104533000D01*
G75*
G02*
X197103000Y-104804738I0J-271738D01*
G01*
G37*
%TD*%
D12*
%TO.C,C1*%
X195936000Y-100000000D03*
D13*
X200000000Y-100000000D03*
D14*
X200000000Y-100000000D03*
X201016000Y-100000000D03*
X202032000Y-100000000D03*
X202032000Y-101016000D03*
X201016000Y-101016000D03*
X200000000Y-101016000D03*
X200000000Y-102032000D03*
X201016000Y-102032000D03*
X202032000Y-102032000D03*
X200000000Y-98984000D03*
X201016000Y-98984000D03*
X202032000Y-98984000D03*
X202032000Y-97968000D03*
X201016000Y-97968000D03*
X200000000Y-97968000D03*
X198984000Y-97968000D03*
X198984000Y-98984000D03*
X198984000Y-100000000D03*
X198984000Y-101016000D03*
X198984000Y-102032000D03*
X197968000Y-102032000D03*
X197968000Y-101016000D03*
X197968000Y-100000000D03*
X197968000Y-98984000D03*
X197968000Y-97968000D03*
%TD*%
D10*
%TO.C,H3*%
X192000000Y-108000000D03*
%TD*%
%TO.C,H2*%
X192000000Y-92000000D03*
%TD*%
D15*
%TO.C,TP2*%
X201803000Y-93472000D03*
%TD*%
%TO.C,TP1*%
X197485000Y-93345000D03*
%TD*%
%TO.C,D2*%
G36*
G01*
X203299000Y-104804738D02*
X203299000Y-105761262D01*
G75*
G02*
X203027262Y-106033000I-271738J0D01*
G01*
X202320738Y-106033000D01*
G75*
G02*
X202049000Y-105761262I0J271738D01*
G01*
X202049000Y-104804738D01*
G75*
G02*
X202320738Y-104533000I271738J0D01*
G01*
X203027262Y-104533000D01*
G75*
G02*
X203299000Y-104804738I0J-271738D01*
G01*
G37*
G36*
G01*
X205349000Y-104804738D02*
X205349000Y-105761262D01*
G75*
G02*
X205077262Y-106033000I-271738J0D01*
G01*
X204370738Y-106033000D01*
G75*
G02*
X204099000Y-105761262I0J271738D01*
G01*
X204099000Y-104804738D01*
G75*
G02*
X204370738Y-104533000I271738J0D01*
G01*
X205077262Y-104533000D01*
G75*
G02*
X205349000Y-104804738I0J-271738D01*
G01*
G37*
%TD*%
%TO.C,D1*%
G36*
G01*
X200035000Y-105761262D02*
X200035000Y-104804738D01*
G75*
G02*
X200306738Y-104533000I271738J0D01*
G01*
X201013262Y-104533000D01*
G75*
G02*
X201285000Y-104804738I0J-271738D01*
G01*
X201285000Y-105761262D01*
G75*
G02*
X201013262Y-106033000I-271738J0D01*
G01*
X200306738Y-106033000D01*
G75*
G02*
X200035000Y-105761262I0J271738D01*
G01*
G37*
G36*
G01*
X197985000Y-105761262D02*
X197985000Y-104804738D01*
G75*
G02*
X198256738Y-104533000I271738J0D01*
G01*
X198963262Y-104533000D01*
G75*
G02*
X199235000Y-104804738I0J-271738D01*
G01*
X199235000Y-105761262D01*
G75*
G02*
X198963262Y-106033000I-271738J0D01*
G01*
X198256738Y-106033000D01*
G75*
G02*
X197985000Y-105761262I0J271738D01*
G01*
G37*
%TD*%
M02*
