M48
; DRILL file {KiCad (5.1.6-0-10_14)} date Thursday, March 24, 2022 at 08:42:31 AM
; FORMAT={-:-/ absolute / inch / decimal}
; #@! TF.CreationDate,2022-03-24T08:42:31-07:00
; #@! TF.GenerationSoftware,Kicad,Pcbnew,(5.1.6-0-10_14)
; #@! TF.FileFunction,Plated,1,2,PTH
FMAT,2
INCH
T1C0.0079
T2C0.0157
T3C0.0394
T4C0.1213
%
G90
G05
T1
X7.794Y-3.857
X7.794Y-3.897
X7.794Y-3.937
X7.794Y-3.977
X7.794Y-4.017
X7.834Y-3.857
X7.834Y-3.897
X7.834Y-3.937
X7.834Y-3.977
X7.834Y-4.017
X7.874Y-3.857
X7.874Y-3.897
X7.874Y-3.937
X7.874Y-3.977
X7.874Y-4.017
X7.914Y-3.857
X7.914Y-3.897
X7.914Y-3.937
X7.914Y-3.977
X7.914Y-4.017
X7.954Y-3.857
X7.954Y-3.897
X7.954Y-3.937
X7.954Y-3.977
X7.954Y-4.017
T2
X7.5197Y-4.1339
X7.5591Y-3.7402
X8.0315Y-3.937
X8.0709Y-4.0551
T3
X7.775Y-3.675
X7.945Y-3.68
T4
X7.5591Y-3.622
X7.5591Y-4.252
X8.189Y-3.622
X8.189Y-4.252
T0
M30
