%TF.GenerationSoftware,KiCad,Pcbnew,(5.1.6-0-10_14)*%
%TF.CreationDate,2020-08-07T17:14:13-07:00*%
%TF.ProjectId,pockels_modulator_pcb,706f636b-656c-4735-9f6d-6f64756c6174,rev?*%
%TF.SameCoordinates,Original*%
%TF.FileFunction,Paste,Top*%
%TF.FilePolarity,Positive*%
%FSLAX46Y46*%
G04 Gerber Fmt 4.6, Leading zero omitted, Abs format (unit mm)*
G04 Created by KiCad (PCBNEW (5.1.6-0-10_14)) date 2020-08-07 17:14:13*
%MOMM*%
%LPD*%
G01*
G04 APERTURE LIST*
%ADD10R,5.080000X1.600000*%
%ADD11R,10.000000X10.000000*%
%ADD12R,1.500000X1.500000*%
G04 APERTURE END LIST*
%TO.C,R1*%
G36*
G01*
X188791001Y-96841000D02*
X187890999Y-96841000D01*
G75*
G02*
X187641000Y-96591001I0J249999D01*
G01*
X187641000Y-95940999D01*
G75*
G02*
X187890999Y-95691000I249999J0D01*
G01*
X188791001Y-95691000D01*
G75*
G02*
X189041000Y-95940999I0J-249999D01*
G01*
X189041000Y-96591001D01*
G75*
G02*
X188791001Y-96841000I-249999J0D01*
G01*
G37*
G36*
G01*
X188791001Y-98891000D02*
X187890999Y-98891000D01*
G75*
G02*
X187641000Y-98641001I0J249999D01*
G01*
X187641000Y-97990999D01*
G75*
G02*
X187890999Y-97741000I249999J0D01*
G01*
X188791001Y-97741000D01*
G75*
G02*
X189041000Y-97990999I0J-249999D01*
G01*
X189041000Y-98641001D01*
G75*
G02*
X188791001Y-98891000I-249999J0D01*
G01*
G37*
%TD*%
D10*
%TO.C,J1*%
X179705000Y-103100000D03*
X179705000Y-97560000D03*
X179705000Y-100330000D03*
%TD*%
%TO.C,D2*%
G36*
G01*
X189551000Y-100641999D02*
X189551000Y-101542001D01*
G75*
G02*
X189301001Y-101792000I-249999J0D01*
G01*
X188650999Y-101792000D01*
G75*
G02*
X188401000Y-101542001I0J249999D01*
G01*
X188401000Y-100641999D01*
G75*
G02*
X188650999Y-100392000I249999J0D01*
G01*
X189301001Y-100392000D01*
G75*
G02*
X189551000Y-100641999I0J-249999D01*
G01*
G37*
G36*
G01*
X191601000Y-100641999D02*
X191601000Y-101542001D01*
G75*
G02*
X191351001Y-101792000I-249999J0D01*
G01*
X190700999Y-101792000D01*
G75*
G02*
X190451000Y-101542001I0J249999D01*
G01*
X190451000Y-100641999D01*
G75*
G02*
X190700999Y-100392000I249999J0D01*
G01*
X191351001Y-100392000D01*
G75*
G02*
X191601000Y-100641999I0J-249999D01*
G01*
G37*
%TD*%
%TO.C,D1*%
G36*
G01*
X186632000Y-101542001D02*
X186632000Y-100641999D01*
G75*
G02*
X186881999Y-100392000I249999J0D01*
G01*
X187532001Y-100392000D01*
G75*
G02*
X187782000Y-100641999I0J-249999D01*
G01*
X187782000Y-101542001D01*
G75*
G02*
X187532001Y-101792000I-249999J0D01*
G01*
X186881999Y-101792000D01*
G75*
G02*
X186632000Y-101542001I0J249999D01*
G01*
G37*
G36*
G01*
X184582000Y-101542001D02*
X184582000Y-100641999D01*
G75*
G02*
X184831999Y-100392000I249999J0D01*
G01*
X185482001Y-100392000D01*
G75*
G02*
X185732000Y-100641999I0J-249999D01*
G01*
X185732000Y-101542001D01*
G75*
G02*
X185482001Y-101792000I-249999J0D01*
G01*
X184831999Y-101792000D01*
G75*
G02*
X184582000Y-101542001I0J249999D01*
G01*
G37*
%TD*%
D11*
%TO.C,C1*%
X200000000Y-100000000D03*
D12*
X194000000Y-100000000D03*
%TD*%
M02*
