%TF.GenerationSoftware,KiCad,Pcbnew,(5.1.6-0-10_14)*%
%TF.CreationDate,2022-03-24T08:42:33-07:00*%
%TF.ProjectId,pockels_modulator_pcb,706f636b-656c-4735-9f6d-6f64756c6174,rev?*%
%TF.SameCoordinates,Original*%
%TF.FileFunction,Legend,Top*%
%TF.FilePolarity,Positive*%
%FSLAX46Y46*%
G04 Gerber Fmt 4.6, Leading zero omitted, Abs format (unit mm)*
G04 Created by KiCad (PCBNEW (5.1.6-0-10_14)) date 2022-03-24 08:42:33*
%MOMM*%
%LPD*%
G01*
G04 APERTURE LIST*
%ADD10C,0.250000*%
%ADD11C,0.120000*%
%ADD12C,0.150000*%
G04 APERTURE END LIST*
D10*
X203936380Y-101671190D02*
X204650666Y-101671190D01*
X204793523Y-101718809D01*
X204888761Y-101814047D01*
X204936380Y-101956904D01*
X204936380Y-102052142D01*
X204936380Y-101052142D02*
X204888761Y-101147380D01*
X204841142Y-101195000D01*
X204745904Y-101242619D01*
X204460190Y-101242619D01*
X204364952Y-101195000D01*
X204317333Y-101147380D01*
X204269714Y-101052142D01*
X204269714Y-100909285D01*
X204317333Y-100814047D01*
X204364952Y-100766428D01*
X204460190Y-100718809D01*
X204745904Y-100718809D01*
X204841142Y-100766428D01*
X204888761Y-100814047D01*
X204936380Y-100909285D01*
X204936380Y-101052142D01*
X204936380Y-100290238D02*
X204269714Y-100290238D01*
X204460190Y-100290238D02*
X204364952Y-100242619D01*
X204317333Y-100195000D01*
X204269714Y-100099761D01*
X204269714Y-100004523D01*
X204936380Y-99242619D02*
X203936380Y-99242619D01*
X204888761Y-99242619D02*
X204936380Y-99337857D01*
X204936380Y-99528333D01*
X204888761Y-99623571D01*
X204841142Y-99671190D01*
X204745904Y-99718809D01*
X204460190Y-99718809D01*
X204364952Y-99671190D01*
X204317333Y-99623571D01*
X204269714Y-99528333D01*
X204269714Y-99337857D01*
X204317333Y-99242619D01*
X204936380Y-98337857D02*
X204412571Y-98337857D01*
X204317333Y-98385476D01*
X204269714Y-98480714D01*
X204269714Y-98671190D01*
X204317333Y-98766428D01*
X204888761Y-98337857D02*
X204936380Y-98433095D01*
X204936380Y-98671190D01*
X204888761Y-98766428D01*
X204793523Y-98814047D01*
X204698285Y-98814047D01*
X204603047Y-98766428D01*
X204555428Y-98671190D01*
X204555428Y-98433095D01*
X204507809Y-98337857D01*
X204269714Y-97861666D02*
X204936380Y-97861666D01*
X204364952Y-97861666D02*
X204317333Y-97814047D01*
X204269714Y-97718809D01*
X204269714Y-97575952D01*
X204317333Y-97480714D01*
X204412571Y-97433095D01*
X204936380Y-97433095D01*
X206162571Y-102790238D02*
X206162571Y-102456904D01*
X206686380Y-102314047D02*
X206686380Y-102790238D01*
X205686380Y-102790238D01*
X205686380Y-102314047D01*
X206686380Y-101456904D02*
X205686380Y-101456904D01*
X206638761Y-101456904D02*
X206686380Y-101552142D01*
X206686380Y-101742619D01*
X206638761Y-101837857D01*
X206591142Y-101885476D01*
X206495904Y-101933095D01*
X206210190Y-101933095D01*
X206114952Y-101885476D01*
X206067333Y-101837857D01*
X206019714Y-101742619D01*
X206019714Y-101552142D01*
X206067333Y-101456904D01*
X206686380Y-100980714D02*
X206019714Y-100980714D01*
X206114952Y-100980714D02*
X206067333Y-100933095D01*
X206019714Y-100837857D01*
X206019714Y-100695000D01*
X206067333Y-100599761D01*
X206162571Y-100552142D01*
X206686380Y-100552142D01*
X206162571Y-100552142D02*
X206067333Y-100504523D01*
X206019714Y-100409285D01*
X206019714Y-100266428D01*
X206067333Y-100171190D01*
X206162571Y-100123571D01*
X206686380Y-100123571D01*
X206019714Y-99218809D02*
X206686380Y-99218809D01*
X206019714Y-99647380D02*
X206543523Y-99647380D01*
X206638761Y-99599761D01*
X206686380Y-99504523D01*
X206686380Y-99361666D01*
X206638761Y-99266428D01*
X206591142Y-99218809D01*
X206019714Y-98742619D02*
X206686380Y-98742619D01*
X206114952Y-98742619D02*
X206067333Y-98695000D01*
X206019714Y-98599761D01*
X206019714Y-98456904D01*
X206067333Y-98361666D01*
X206162571Y-98314047D01*
X206686380Y-98314047D01*
X206686380Y-97409285D02*
X205686380Y-97409285D01*
X206638761Y-97409285D02*
X206686380Y-97504523D01*
X206686380Y-97695000D01*
X206638761Y-97790238D01*
X206591142Y-97837857D01*
X206495904Y-97885476D01*
X206210190Y-97885476D01*
X206114952Y-97837857D01*
X206067333Y-97790238D01*
X206019714Y-97695000D01*
X206019714Y-97504523D01*
X206067333Y-97409285D01*
X206638761Y-96980714D02*
X206686380Y-96885476D01*
X206686380Y-96695000D01*
X206638761Y-96599761D01*
X206543523Y-96552142D01*
X206495904Y-96552142D01*
X206400666Y-96599761D01*
X206353047Y-96695000D01*
X206353047Y-96837857D01*
X206305428Y-96933095D01*
X206210190Y-96980714D01*
X206162571Y-96980714D01*
X206067333Y-96933095D01*
X206019714Y-96837857D01*
X206019714Y-96695000D01*
X206067333Y-96599761D01*
X208492380Y-102337857D02*
X207492380Y-102337857D01*
X207492380Y-101956904D01*
X207540000Y-101861666D01*
X207587619Y-101814047D01*
X207682857Y-101766428D01*
X207825714Y-101766428D01*
X207920952Y-101814047D01*
X207968571Y-101861666D01*
X208016190Y-101956904D01*
X208016190Y-102337857D01*
X208492380Y-101195000D02*
X208444761Y-101290238D01*
X208397142Y-101337857D01*
X208301904Y-101385476D01*
X208016190Y-101385476D01*
X207920952Y-101337857D01*
X207873333Y-101290238D01*
X207825714Y-101195000D01*
X207825714Y-101052142D01*
X207873333Y-100956904D01*
X207920952Y-100909285D01*
X208016190Y-100861666D01*
X208301904Y-100861666D01*
X208397142Y-100909285D01*
X208444761Y-100956904D01*
X208492380Y-101052142D01*
X208492380Y-101195000D01*
X208444761Y-100004523D02*
X208492380Y-100099761D01*
X208492380Y-100290238D01*
X208444761Y-100385476D01*
X208397142Y-100433095D01*
X208301904Y-100480714D01*
X208016190Y-100480714D01*
X207920952Y-100433095D01*
X207873333Y-100385476D01*
X207825714Y-100290238D01*
X207825714Y-100099761D01*
X207873333Y-100004523D01*
X208492380Y-99575952D02*
X207492380Y-99575952D01*
X208111428Y-99480714D02*
X208492380Y-99195000D01*
X207825714Y-99195000D02*
X208206666Y-99575952D01*
X208444761Y-98385476D02*
X208492380Y-98480714D01*
X208492380Y-98671190D01*
X208444761Y-98766428D01*
X208349523Y-98814047D01*
X207968571Y-98814047D01*
X207873333Y-98766428D01*
X207825714Y-98671190D01*
X207825714Y-98480714D01*
X207873333Y-98385476D01*
X207968571Y-98337857D01*
X208063809Y-98337857D01*
X208159047Y-98814047D01*
X208492380Y-97766428D02*
X208444761Y-97861666D01*
X208349523Y-97909285D01*
X207492380Y-97909285D01*
X208444761Y-97433095D02*
X208492380Y-97337857D01*
X208492380Y-97147380D01*
X208444761Y-97052142D01*
X208349523Y-97004523D01*
X208301904Y-97004523D01*
X208206666Y-97052142D01*
X208159047Y-97147380D01*
X208159047Y-97290238D01*
X208111428Y-97385476D01*
X208016190Y-97433095D01*
X207968571Y-97433095D01*
X207873333Y-97385476D01*
X207825714Y-97290238D01*
X207825714Y-97147380D01*
X207873333Y-97052142D01*
X210242380Y-104385476D02*
X209242380Y-104385476D01*
X209956666Y-104052142D01*
X209242380Y-103718809D01*
X210242380Y-103718809D01*
X210242380Y-103099761D02*
X210194761Y-103195000D01*
X210147142Y-103242619D01*
X210051904Y-103290238D01*
X209766190Y-103290238D01*
X209670952Y-103242619D01*
X209623333Y-103195000D01*
X209575714Y-103099761D01*
X209575714Y-102956904D01*
X209623333Y-102861666D01*
X209670952Y-102814047D01*
X209766190Y-102766428D01*
X210051904Y-102766428D01*
X210147142Y-102814047D01*
X210194761Y-102861666D01*
X210242380Y-102956904D01*
X210242380Y-103099761D01*
X210242380Y-101909285D02*
X209242380Y-101909285D01*
X210194761Y-101909285D02*
X210242380Y-102004523D01*
X210242380Y-102195000D01*
X210194761Y-102290238D01*
X210147142Y-102337857D01*
X210051904Y-102385476D01*
X209766190Y-102385476D01*
X209670952Y-102337857D01*
X209623333Y-102290238D01*
X209575714Y-102195000D01*
X209575714Y-102004523D01*
X209623333Y-101909285D01*
X209575714Y-101004523D02*
X210242380Y-101004523D01*
X209575714Y-101433095D02*
X210099523Y-101433095D01*
X210194761Y-101385476D01*
X210242380Y-101290238D01*
X210242380Y-101147380D01*
X210194761Y-101052142D01*
X210147142Y-101004523D01*
X210242380Y-100385476D02*
X210194761Y-100480714D01*
X210099523Y-100528333D01*
X209242380Y-100528333D01*
X210242380Y-99575952D02*
X209718571Y-99575952D01*
X209623333Y-99623571D01*
X209575714Y-99718809D01*
X209575714Y-99909285D01*
X209623333Y-100004523D01*
X210194761Y-99575952D02*
X210242380Y-99671190D01*
X210242380Y-99909285D01*
X210194761Y-100004523D01*
X210099523Y-100052142D01*
X210004285Y-100052142D01*
X209909047Y-100004523D01*
X209861428Y-99909285D01*
X209861428Y-99671190D01*
X209813809Y-99575952D01*
X209575714Y-99242619D02*
X209575714Y-98861666D01*
X209242380Y-99099761D02*
X210099523Y-99099761D01*
X210194761Y-99052142D01*
X210242380Y-98956904D01*
X210242380Y-98861666D01*
X210242380Y-98385476D02*
X210194761Y-98480714D01*
X210147142Y-98528333D01*
X210051904Y-98575952D01*
X209766190Y-98575952D01*
X209670952Y-98528333D01*
X209623333Y-98480714D01*
X209575714Y-98385476D01*
X209575714Y-98242619D01*
X209623333Y-98147380D01*
X209670952Y-98099761D01*
X209766190Y-98052142D01*
X210051904Y-98052142D01*
X210147142Y-98099761D01*
X210194761Y-98147380D01*
X210242380Y-98242619D01*
X210242380Y-98385476D01*
X210242380Y-97623571D02*
X209575714Y-97623571D01*
X209766190Y-97623571D02*
X209670952Y-97575952D01*
X209623333Y-97528333D01*
X209575714Y-97433095D01*
X209575714Y-97337857D01*
X209575714Y-96337857D02*
X210242380Y-96099761D01*
X209575714Y-95861666D01*
X209337619Y-95528333D02*
X209290000Y-95480714D01*
X209242380Y-95385476D01*
X209242380Y-95147380D01*
X209290000Y-95052142D01*
X209337619Y-95004523D01*
X209432857Y-94956904D01*
X209528095Y-94956904D01*
X209670952Y-95004523D01*
X210242380Y-95575952D01*
X210242380Y-94956904D01*
D11*
%TO.C,R1*%
X195714252Y-104573000D02*
X195191748Y-104573000D01*
X195714252Y-105993000D02*
X195191748Y-105993000D01*
%TO.C,C1*%
X197460000Y-97460000D02*
X198730000Y-97460000D01*
X197460000Y-97460000D02*
X197460000Y-98730000D01*
X202540000Y-97460000D02*
X201270000Y-97460000D01*
X202540000Y-97460000D02*
X202540000Y-98730000D01*
X197460000Y-101270000D02*
X197460000Y-102540000D01*
X197460000Y-102540000D02*
X198730000Y-102540000D01*
X197460000Y-102540000D02*
X197460000Y-101270000D01*
X202540000Y-102540000D02*
X202540000Y-101270000D01*
X202540000Y-102540000D02*
X201270000Y-102540000D01*
D12*
%TO.C,TP2*%
X203203000Y-93472000D02*
G75*
G03*
X203203000Y-93472000I-1400000J0D01*
G01*
%TO.C,TP1*%
X198885000Y-93345000D02*
G75*
G03*
X198885000Y-93345000I-1400000J0D01*
G01*
D11*
%TO.C,D2*%
X203960252Y-104573000D02*
X203437748Y-104573000D01*
X203960252Y-105993000D02*
X203437748Y-105993000D01*
%TO.C,D1*%
X199373748Y-105993000D02*
X199896252Y-105993000D01*
X199373748Y-104573000D02*
X199896252Y-104573000D01*
%TO.C,H4*%
D12*
X207238095Y-108952380D02*
X207238095Y-107952380D01*
X207238095Y-108428571D02*
X207809523Y-108428571D01*
X207809523Y-108952380D02*
X207809523Y-107952380D01*
X208714285Y-108285714D02*
X208714285Y-108952380D01*
X208476190Y-107904761D02*
X208238095Y-108619047D01*
X208857142Y-108619047D01*
%TO.C,H1*%
X206883095Y-105227380D02*
X206883095Y-104227380D01*
X206883095Y-104703571D02*
X207454523Y-104703571D01*
X207454523Y-105227380D02*
X207454523Y-104227380D01*
X208454523Y-105227380D02*
X207883095Y-105227380D01*
X208168809Y-105227380D02*
X208168809Y-104227380D01*
X208073571Y-104370238D01*
X207978333Y-104465476D01*
X207883095Y-104513095D01*
%TO.C,J1*%
X191656666Y-106401380D02*
X191656666Y-107115666D01*
X191609047Y-107258523D01*
X191513809Y-107353761D01*
X191370952Y-107401380D01*
X191275714Y-107401380D01*
X192656666Y-107401380D02*
X192085238Y-107401380D01*
X192370952Y-107401380D02*
X192370952Y-106401380D01*
X192275714Y-106544238D01*
X192180476Y-106639476D01*
X192085238Y-106687095D01*
%TO.C,R1*%
X195286333Y-107385380D02*
X194953000Y-106909190D01*
X194714904Y-107385380D02*
X194714904Y-106385380D01*
X195095857Y-106385380D01*
X195191095Y-106433000D01*
X195238714Y-106480619D01*
X195286333Y-106575857D01*
X195286333Y-106718714D01*
X195238714Y-106813952D01*
X195191095Y-106861571D01*
X195095857Y-106909190D01*
X194714904Y-106909190D01*
X196238714Y-107385380D02*
X195667285Y-107385380D01*
X195953000Y-107385380D02*
X195953000Y-106385380D01*
X195857761Y-106528238D01*
X195762523Y-106623476D01*
X195667285Y-106671095D01*
%TO.C,C1*%
X203287333Y-103862142D02*
X203239714Y-103909761D01*
X203096857Y-103957380D01*
X203001619Y-103957380D01*
X202858761Y-103909761D01*
X202763523Y-103814523D01*
X202715904Y-103719285D01*
X202668285Y-103528809D01*
X202668285Y-103385952D01*
X202715904Y-103195476D01*
X202763523Y-103100238D01*
X202858761Y-103005000D01*
X203001619Y-102957380D01*
X203096857Y-102957380D01*
X203239714Y-103005000D01*
X203287333Y-103052619D01*
X204239714Y-103957380D02*
X203668285Y-103957380D01*
X203954000Y-103957380D02*
X203954000Y-102957380D01*
X203858761Y-103100238D01*
X203763523Y-103195476D01*
X203668285Y-103243095D01*
%TO.C,H3*%
X191238095Y-108952380D02*
X191238095Y-107952380D01*
X191238095Y-108428571D02*
X191809523Y-108428571D01*
X191809523Y-108952380D02*
X191809523Y-107952380D01*
X192190476Y-107952380D02*
X192809523Y-107952380D01*
X192476190Y-108333333D01*
X192619047Y-108333333D01*
X192714285Y-108380952D01*
X192761904Y-108428571D01*
X192809523Y-108523809D01*
X192809523Y-108761904D01*
X192761904Y-108857142D01*
X192714285Y-108904761D01*
X192619047Y-108952380D01*
X192333333Y-108952380D01*
X192238095Y-108904761D01*
X192190476Y-108857142D01*
%TO.C,H2*%
X191238095Y-92952380D02*
X191238095Y-91952380D01*
X191238095Y-92428571D02*
X191809523Y-92428571D01*
X191809523Y-92952380D02*
X191809523Y-91952380D01*
X192238095Y-92047619D02*
X192285714Y-92000000D01*
X192380952Y-91952380D01*
X192619047Y-91952380D01*
X192714285Y-92000000D01*
X192761904Y-92047619D01*
X192809523Y-92142857D01*
X192809523Y-92238095D01*
X192761904Y-92380952D01*
X192190476Y-92952380D01*
X192809523Y-92952380D01*
%TO.C,TP2*%
X201041095Y-95472000D02*
X200945857Y-95424380D01*
X200803000Y-95424380D01*
X200660142Y-95472000D01*
X200564904Y-95567238D01*
X200517285Y-95662476D01*
X200469666Y-95852952D01*
X200469666Y-95995809D01*
X200517285Y-96186285D01*
X200564904Y-96281523D01*
X200660142Y-96376761D01*
X200803000Y-96424380D01*
X200898238Y-96424380D01*
X201041095Y-96376761D01*
X201088714Y-96329142D01*
X201088714Y-95995809D01*
X200898238Y-95995809D01*
X201517285Y-96424380D02*
X201517285Y-95424380D01*
X202088714Y-96424380D01*
X202088714Y-95424380D01*
X202564904Y-96424380D02*
X202564904Y-95424380D01*
X202803000Y-95424380D01*
X202945857Y-95472000D01*
X203041095Y-95567238D01*
X203088714Y-95662476D01*
X203136333Y-95852952D01*
X203136333Y-95995809D01*
X203088714Y-96186285D01*
X203041095Y-96281523D01*
X202945857Y-96376761D01*
X202803000Y-96424380D01*
X202564904Y-96424380D01*
%TO.C,TP1*%
X195445190Y-95464380D02*
X195778523Y-96464380D01*
X196111857Y-95464380D01*
X196445190Y-96464380D02*
X196445190Y-95797714D01*
X196445190Y-95464380D02*
X196397571Y-95512000D01*
X196445190Y-95559619D01*
X196492809Y-95512000D01*
X196445190Y-95464380D01*
X196445190Y-95559619D01*
X196921380Y-95797714D02*
X196921380Y-96464380D01*
X196921380Y-95892952D02*
X196969000Y-95845333D01*
X197064238Y-95797714D01*
X197207095Y-95797714D01*
X197302333Y-95845333D01*
X197349952Y-95940571D01*
X197349952Y-96464380D01*
%TO.C,D2*%
X202960904Y-107385380D02*
X202960904Y-106385380D01*
X203199000Y-106385380D01*
X203341857Y-106433000D01*
X203437095Y-106528238D01*
X203484714Y-106623476D01*
X203532333Y-106813952D01*
X203532333Y-106956809D01*
X203484714Y-107147285D01*
X203437095Y-107242523D01*
X203341857Y-107337761D01*
X203199000Y-107385380D01*
X202960904Y-107385380D01*
X203913285Y-106480619D02*
X203960904Y-106433000D01*
X204056142Y-106385380D01*
X204294238Y-106385380D01*
X204389476Y-106433000D01*
X204437095Y-106480619D01*
X204484714Y-106575857D01*
X204484714Y-106671095D01*
X204437095Y-106813952D01*
X203865666Y-107385380D01*
X204484714Y-107385380D01*
%TO.C,D1*%
X198651904Y-107386380D02*
X198651904Y-106386380D01*
X198890000Y-106386380D01*
X199032857Y-106434000D01*
X199128095Y-106529238D01*
X199175714Y-106624476D01*
X199223333Y-106814952D01*
X199223333Y-106957809D01*
X199175714Y-107148285D01*
X199128095Y-107243523D01*
X199032857Y-107338761D01*
X198890000Y-107386380D01*
X198651904Y-107386380D01*
X200175714Y-107386380D02*
X199604285Y-107386380D01*
X199890000Y-107386380D02*
X199890000Y-106386380D01*
X199794761Y-106529238D01*
X199699523Y-106624476D01*
X199604285Y-106672095D01*
%TD*%
M02*
