%TF.GenerationSoftware,KiCad,Pcbnew,(5.1.6-0-10_14)*%
%TF.CreationDate,2020-08-07T17:14:13-07:00*%
%TF.ProjectId,pockels_modulator_pcb,706f636b-656c-4735-9f6d-6f64756c6174,rev?*%
%TF.SameCoordinates,Original*%
%TF.FileFunction,Legend,Top*%
%TF.FilePolarity,Positive*%
%FSLAX46Y46*%
G04 Gerber Fmt 4.6, Leading zero omitted, Abs format (unit mm)*
G04 Created by KiCad (PCBNEW (5.1.6-0-10_14)) date 2020-08-07 17:14:13*
%MOMM*%
%LPD*%
G01*
G04 APERTURE LIST*
%ADD10C,0.150000*%
%ADD11C,0.250000*%
%ADD12C,0.120000*%
G04 APERTURE END LIST*
D10*
X190238939Y-111708026D02*
G75*
G02*
X190309500Y-88229440I9783446J11709997D01*
G01*
X209838225Y-88344849D02*
G75*
G02*
X209974180Y-111539020I-9838225J-11655151D01*
G01*
D11*
X198175809Y-88747380D02*
X198175809Y-89461666D01*
X198128190Y-89604523D01*
X198032952Y-89699761D01*
X197890095Y-89747380D01*
X197794857Y-89747380D01*
X198794857Y-89747380D02*
X198699619Y-89699761D01*
X198652000Y-89652142D01*
X198604380Y-89556904D01*
X198604380Y-89271190D01*
X198652000Y-89175952D01*
X198699619Y-89128333D01*
X198794857Y-89080714D01*
X198937714Y-89080714D01*
X199032952Y-89128333D01*
X199080571Y-89175952D01*
X199128190Y-89271190D01*
X199128190Y-89556904D01*
X199080571Y-89652142D01*
X199032952Y-89699761D01*
X198937714Y-89747380D01*
X198794857Y-89747380D01*
X199556761Y-89747380D02*
X199556761Y-89080714D01*
X199556761Y-89271190D02*
X199604380Y-89175952D01*
X199652000Y-89128333D01*
X199747238Y-89080714D01*
X199842476Y-89080714D01*
X200604380Y-89747380D02*
X200604380Y-88747380D01*
X200604380Y-89699761D02*
X200509142Y-89747380D01*
X200318666Y-89747380D01*
X200223428Y-89699761D01*
X200175809Y-89652142D01*
X200128190Y-89556904D01*
X200128190Y-89271190D01*
X200175809Y-89175952D01*
X200223428Y-89128333D01*
X200318666Y-89080714D01*
X200509142Y-89080714D01*
X200604380Y-89128333D01*
X201509142Y-89747380D02*
X201509142Y-89223571D01*
X201461523Y-89128333D01*
X201366285Y-89080714D01*
X201175809Y-89080714D01*
X201080571Y-89128333D01*
X201509142Y-89699761D02*
X201413904Y-89747380D01*
X201175809Y-89747380D01*
X201080571Y-89699761D01*
X201032952Y-89604523D01*
X201032952Y-89509285D01*
X201080571Y-89414047D01*
X201175809Y-89366428D01*
X201413904Y-89366428D01*
X201509142Y-89318809D01*
X201985333Y-89080714D02*
X201985333Y-89747380D01*
X201985333Y-89175952D02*
X202032952Y-89128333D01*
X202128190Y-89080714D01*
X202271047Y-89080714D01*
X202366285Y-89128333D01*
X202413904Y-89223571D01*
X202413904Y-89747380D01*
X197056761Y-90973571D02*
X197390095Y-90973571D01*
X197532952Y-91497380D02*
X197056761Y-91497380D01*
X197056761Y-90497380D01*
X197532952Y-90497380D01*
X198390095Y-91497380D02*
X198390095Y-90497380D01*
X198390095Y-91449761D02*
X198294857Y-91497380D01*
X198104380Y-91497380D01*
X198009142Y-91449761D01*
X197961523Y-91402142D01*
X197913904Y-91306904D01*
X197913904Y-91021190D01*
X197961523Y-90925952D01*
X198009142Y-90878333D01*
X198104380Y-90830714D01*
X198294857Y-90830714D01*
X198390095Y-90878333D01*
X198866285Y-91497380D02*
X198866285Y-90830714D01*
X198866285Y-90925952D02*
X198913904Y-90878333D01*
X199009142Y-90830714D01*
X199152000Y-90830714D01*
X199247238Y-90878333D01*
X199294857Y-90973571D01*
X199294857Y-91497380D01*
X199294857Y-90973571D02*
X199342476Y-90878333D01*
X199437714Y-90830714D01*
X199580571Y-90830714D01*
X199675809Y-90878333D01*
X199723428Y-90973571D01*
X199723428Y-91497380D01*
X200628190Y-90830714D02*
X200628190Y-91497380D01*
X200199619Y-90830714D02*
X200199619Y-91354523D01*
X200247238Y-91449761D01*
X200342476Y-91497380D01*
X200485333Y-91497380D01*
X200580571Y-91449761D01*
X200628190Y-91402142D01*
X201104380Y-90830714D02*
X201104380Y-91497380D01*
X201104380Y-90925952D02*
X201152000Y-90878333D01*
X201247238Y-90830714D01*
X201390095Y-90830714D01*
X201485333Y-90878333D01*
X201532952Y-90973571D01*
X201532952Y-91497380D01*
X202437714Y-91497380D02*
X202437714Y-90497380D01*
X202437714Y-91449761D02*
X202342476Y-91497380D01*
X202152000Y-91497380D01*
X202056761Y-91449761D01*
X202009142Y-91402142D01*
X201961523Y-91306904D01*
X201961523Y-91021190D01*
X202009142Y-90925952D01*
X202056761Y-90878333D01*
X202152000Y-90830714D01*
X202342476Y-90830714D01*
X202437714Y-90878333D01*
X202866285Y-91449761D02*
X202961523Y-91497380D01*
X203152000Y-91497380D01*
X203247238Y-91449761D01*
X203294857Y-91354523D01*
X203294857Y-91306904D01*
X203247238Y-91211666D01*
X203152000Y-91164047D01*
X203009142Y-91164047D01*
X202913904Y-91116428D01*
X202866285Y-91021190D01*
X202866285Y-90973571D01*
X202913904Y-90878333D01*
X203009142Y-90830714D01*
X203152000Y-90830714D01*
X203247238Y-90878333D01*
X197509142Y-109305380D02*
X197509142Y-108305380D01*
X197890095Y-108305380D01*
X197985333Y-108353000D01*
X198032952Y-108400619D01*
X198080571Y-108495857D01*
X198080571Y-108638714D01*
X198032952Y-108733952D01*
X197985333Y-108781571D01*
X197890095Y-108829190D01*
X197509142Y-108829190D01*
X198652000Y-109305380D02*
X198556761Y-109257761D01*
X198509142Y-109210142D01*
X198461523Y-109114904D01*
X198461523Y-108829190D01*
X198509142Y-108733952D01*
X198556761Y-108686333D01*
X198652000Y-108638714D01*
X198794857Y-108638714D01*
X198890095Y-108686333D01*
X198937714Y-108733952D01*
X198985333Y-108829190D01*
X198985333Y-109114904D01*
X198937714Y-109210142D01*
X198890095Y-109257761D01*
X198794857Y-109305380D01*
X198652000Y-109305380D01*
X199842476Y-109257761D02*
X199747238Y-109305380D01*
X199556761Y-109305380D01*
X199461523Y-109257761D01*
X199413904Y-109210142D01*
X199366285Y-109114904D01*
X199366285Y-108829190D01*
X199413904Y-108733952D01*
X199461523Y-108686333D01*
X199556761Y-108638714D01*
X199747238Y-108638714D01*
X199842476Y-108686333D01*
X200271047Y-109305380D02*
X200271047Y-108305380D01*
X200366285Y-108924428D02*
X200652000Y-109305380D01*
X200652000Y-108638714D02*
X200271047Y-109019666D01*
X201461523Y-109257761D02*
X201366285Y-109305380D01*
X201175809Y-109305380D01*
X201080571Y-109257761D01*
X201032952Y-109162523D01*
X201032952Y-108781571D01*
X201080571Y-108686333D01*
X201175809Y-108638714D01*
X201366285Y-108638714D01*
X201461523Y-108686333D01*
X201509142Y-108781571D01*
X201509142Y-108876809D01*
X201032952Y-108972047D01*
X202080571Y-109305380D02*
X201985333Y-109257761D01*
X201937714Y-109162523D01*
X201937714Y-108305380D01*
X202413904Y-109257761D02*
X202509142Y-109305380D01*
X202699619Y-109305380D01*
X202794857Y-109257761D01*
X202842476Y-109162523D01*
X202842476Y-109114904D01*
X202794857Y-109019666D01*
X202699619Y-108972047D01*
X202556761Y-108972047D01*
X202461523Y-108924428D01*
X202413904Y-108829190D01*
X202413904Y-108781571D01*
X202461523Y-108686333D01*
X202556761Y-108638714D01*
X202699619Y-108638714D01*
X202794857Y-108686333D01*
X195461523Y-111055380D02*
X195461523Y-110055380D01*
X195794857Y-110769666D01*
X196128190Y-110055380D01*
X196128190Y-111055380D01*
X196747238Y-111055380D02*
X196652000Y-111007761D01*
X196604380Y-110960142D01*
X196556761Y-110864904D01*
X196556761Y-110579190D01*
X196604380Y-110483952D01*
X196652000Y-110436333D01*
X196747238Y-110388714D01*
X196890095Y-110388714D01*
X196985333Y-110436333D01*
X197032952Y-110483952D01*
X197080571Y-110579190D01*
X197080571Y-110864904D01*
X197032952Y-110960142D01*
X196985333Y-111007761D01*
X196890095Y-111055380D01*
X196747238Y-111055380D01*
X197937714Y-111055380D02*
X197937714Y-110055380D01*
X197937714Y-111007761D02*
X197842476Y-111055380D01*
X197652000Y-111055380D01*
X197556761Y-111007761D01*
X197509142Y-110960142D01*
X197461523Y-110864904D01*
X197461523Y-110579190D01*
X197509142Y-110483952D01*
X197556761Y-110436333D01*
X197652000Y-110388714D01*
X197842476Y-110388714D01*
X197937714Y-110436333D01*
X198842476Y-110388714D02*
X198842476Y-111055380D01*
X198413904Y-110388714D02*
X198413904Y-110912523D01*
X198461523Y-111007761D01*
X198556761Y-111055380D01*
X198699619Y-111055380D01*
X198794857Y-111007761D01*
X198842476Y-110960142D01*
X199461523Y-111055380D02*
X199366285Y-111007761D01*
X199318666Y-110912523D01*
X199318666Y-110055380D01*
X200271047Y-111055380D02*
X200271047Y-110531571D01*
X200223428Y-110436333D01*
X200128190Y-110388714D01*
X199937714Y-110388714D01*
X199842476Y-110436333D01*
X200271047Y-111007761D02*
X200175809Y-111055380D01*
X199937714Y-111055380D01*
X199842476Y-111007761D01*
X199794857Y-110912523D01*
X199794857Y-110817285D01*
X199842476Y-110722047D01*
X199937714Y-110674428D01*
X200175809Y-110674428D01*
X200271047Y-110626809D01*
X200604380Y-110388714D02*
X200985333Y-110388714D01*
X200747238Y-110055380D02*
X200747238Y-110912523D01*
X200794857Y-111007761D01*
X200890095Y-111055380D01*
X200985333Y-111055380D01*
X201461523Y-111055380D02*
X201366285Y-111007761D01*
X201318666Y-110960142D01*
X201271047Y-110864904D01*
X201271047Y-110579190D01*
X201318666Y-110483952D01*
X201366285Y-110436333D01*
X201461523Y-110388714D01*
X201604380Y-110388714D01*
X201699619Y-110436333D01*
X201747238Y-110483952D01*
X201794857Y-110579190D01*
X201794857Y-110864904D01*
X201747238Y-110960142D01*
X201699619Y-111007761D01*
X201604380Y-111055380D01*
X201461523Y-111055380D01*
X202223428Y-111055380D02*
X202223428Y-110388714D01*
X202223428Y-110579190D02*
X202271047Y-110483952D01*
X202318666Y-110436333D01*
X202413904Y-110388714D01*
X202509142Y-110388714D01*
X203509142Y-110388714D02*
X203747238Y-111055380D01*
X203985333Y-110388714D01*
X204890095Y-111055380D02*
X204318666Y-111055380D01*
X204604380Y-111055380D02*
X204604380Y-110055380D01*
X204509142Y-110198238D01*
X204413904Y-110293476D01*
X204318666Y-110341095D01*
D10*
%TO.C,TP2*%
X183391000Y-90932000D02*
G75*
G03*
X183391000Y-90932000I-1400000J0D01*
G01*
%TO.C,TP1*%
X183137000Y-109093000D02*
G75*
G03*
X183137000Y-109093000I-1400000J0D01*
G01*
D12*
%TO.C,R1*%
X187631000Y-97552252D02*
X187631000Y-97029748D01*
X189051000Y-97552252D02*
X189051000Y-97029748D01*
%TO.C,J1*%
X183925000Y-100580000D02*
X183425000Y-100330000D01*
X183925000Y-100080000D02*
X183925000Y-100580000D01*
X183425000Y-100330000D02*
X183925000Y-100080000D01*
%TO.C,D2*%
X190262252Y-101802000D02*
X189739748Y-101802000D01*
X190262252Y-100382000D02*
X189739748Y-100382000D01*
%TO.C,D1*%
X185920748Y-100382000D02*
X186443252Y-100382000D01*
X185920748Y-101802000D02*
X186443252Y-101802000D01*
%TO.C,C1*%
X205080000Y-105080000D02*
X203810000Y-105080000D01*
X205080000Y-105080000D02*
X205080000Y-103810000D01*
X194920000Y-105080000D02*
X194920000Y-103810000D01*
X194920000Y-105080000D02*
X196190000Y-105080000D01*
X194920000Y-103810000D02*
X194920000Y-105080000D01*
X205080000Y-94920000D02*
X205080000Y-96190000D01*
X205080000Y-94920000D02*
X203810000Y-94920000D01*
X194920000Y-94920000D02*
X194920000Y-96190000D01*
X194920000Y-94920000D02*
X196190000Y-94920000D01*
%TO.C,H4*%
D10*
X207238095Y-108952380D02*
X207238095Y-107952380D01*
X207238095Y-108428571D02*
X207809523Y-108428571D01*
X207809523Y-108952380D02*
X207809523Y-107952380D01*
X208714285Y-108285714D02*
X208714285Y-108952380D01*
X208476190Y-107904761D02*
X208238095Y-108619047D01*
X208857142Y-108619047D01*
%TO.C,H3*%
X191238095Y-108952380D02*
X191238095Y-107952380D01*
X191238095Y-108428571D02*
X191809523Y-108428571D01*
X191809523Y-108952380D02*
X191809523Y-107952380D01*
X192190476Y-107952380D02*
X192809523Y-107952380D01*
X192476190Y-108333333D01*
X192619047Y-108333333D01*
X192714285Y-108380952D01*
X192761904Y-108428571D01*
X192809523Y-108523809D01*
X192809523Y-108761904D01*
X192761904Y-108857142D01*
X192714285Y-108904761D01*
X192619047Y-108952380D01*
X192333333Y-108952380D01*
X192238095Y-108904761D01*
X192190476Y-108857142D01*
%TO.C,H2*%
X191238095Y-92952380D02*
X191238095Y-91952380D01*
X191238095Y-92428571D02*
X191809523Y-92428571D01*
X191809523Y-92952380D02*
X191809523Y-91952380D01*
X192238095Y-92047619D02*
X192285714Y-92000000D01*
X192380952Y-91952380D01*
X192619047Y-91952380D01*
X192714285Y-92000000D01*
X192761904Y-92047619D01*
X192809523Y-92142857D01*
X192809523Y-92238095D01*
X192761904Y-92380952D01*
X192190476Y-92952380D01*
X192809523Y-92952380D01*
%TO.C,H1*%
X207238095Y-92952380D02*
X207238095Y-91952380D01*
X207238095Y-92428571D02*
X207809523Y-92428571D01*
X207809523Y-92952380D02*
X207809523Y-91952380D01*
X208809523Y-92952380D02*
X208238095Y-92952380D01*
X208523809Y-92952380D02*
X208523809Y-91952380D01*
X208428571Y-92095238D01*
X208333333Y-92190476D01*
X208238095Y-92238095D01*
%TO.C,TP2*%
X181229095Y-92932000D02*
X181133857Y-92884380D01*
X180991000Y-92884380D01*
X180848142Y-92932000D01*
X180752904Y-93027238D01*
X180705285Y-93122476D01*
X180657666Y-93312952D01*
X180657666Y-93455809D01*
X180705285Y-93646285D01*
X180752904Y-93741523D01*
X180848142Y-93836761D01*
X180991000Y-93884380D01*
X181086238Y-93884380D01*
X181229095Y-93836761D01*
X181276714Y-93789142D01*
X181276714Y-93455809D01*
X181086238Y-93455809D01*
X181705285Y-93884380D02*
X181705285Y-92884380D01*
X182276714Y-93884380D01*
X182276714Y-92884380D01*
X182752904Y-93884380D02*
X182752904Y-92884380D01*
X182991000Y-92884380D01*
X183133857Y-92932000D01*
X183229095Y-93027238D01*
X183276714Y-93122476D01*
X183324333Y-93312952D01*
X183324333Y-93455809D01*
X183276714Y-93646285D01*
X183229095Y-93741523D01*
X183133857Y-93836761D01*
X182991000Y-93884380D01*
X182752904Y-93884380D01*
%TO.C,TP1*%
X183705619Y-109561380D02*
X184038952Y-110561380D01*
X184372285Y-109561380D01*
X184705619Y-110180428D02*
X185467523Y-110180428D01*
X185086571Y-110561380D02*
X185086571Y-109799476D01*
%TO.C,R1*%
X187143380Y-97457666D02*
X186667190Y-97791000D01*
X187143380Y-98029095D02*
X186143380Y-98029095D01*
X186143380Y-97648142D01*
X186191000Y-97552904D01*
X186238619Y-97505285D01*
X186333857Y-97457666D01*
X186476714Y-97457666D01*
X186571952Y-97505285D01*
X186619571Y-97552904D01*
X186667190Y-97648142D01*
X186667190Y-98029095D01*
X187143380Y-96505285D02*
X187143380Y-97076714D01*
X187143380Y-96791000D02*
X186143380Y-96791000D01*
X186286238Y-96886238D01*
X186381476Y-96981476D01*
X186429095Y-97076714D01*
%TO.C,J1*%
X179591666Y-106782380D02*
X179591666Y-107496666D01*
X179544047Y-107639523D01*
X179448809Y-107734761D01*
X179305952Y-107782380D01*
X179210714Y-107782380D01*
X180591666Y-107782380D02*
X180020238Y-107782380D01*
X180305952Y-107782380D02*
X180305952Y-106782380D01*
X180210714Y-106925238D01*
X180115476Y-107020476D01*
X180020238Y-107068095D01*
%TO.C,D2*%
X189262904Y-103194380D02*
X189262904Y-102194380D01*
X189501000Y-102194380D01*
X189643857Y-102242000D01*
X189739095Y-102337238D01*
X189786714Y-102432476D01*
X189834333Y-102622952D01*
X189834333Y-102765809D01*
X189786714Y-102956285D01*
X189739095Y-103051523D01*
X189643857Y-103146761D01*
X189501000Y-103194380D01*
X189262904Y-103194380D01*
X190215285Y-102289619D02*
X190262904Y-102242000D01*
X190358142Y-102194380D01*
X190596238Y-102194380D01*
X190691476Y-102242000D01*
X190739095Y-102289619D01*
X190786714Y-102384857D01*
X190786714Y-102480095D01*
X190739095Y-102622952D01*
X190167666Y-103194380D01*
X190786714Y-103194380D01*
%TO.C,D1*%
X185443904Y-99894380D02*
X185443904Y-98894380D01*
X185682000Y-98894380D01*
X185824857Y-98942000D01*
X185920095Y-99037238D01*
X185967714Y-99132476D01*
X186015333Y-99322952D01*
X186015333Y-99465809D01*
X185967714Y-99656285D01*
X185920095Y-99751523D01*
X185824857Y-99846761D01*
X185682000Y-99894380D01*
X185443904Y-99894380D01*
X186967714Y-99894380D02*
X186396285Y-99894380D01*
X186682000Y-99894380D02*
X186682000Y-98894380D01*
X186586761Y-99037238D01*
X186491523Y-99132476D01*
X186396285Y-99180095D01*
%TO.C,C1*%
X197293333Y-107977142D02*
X197245714Y-108024761D01*
X197102857Y-108072380D01*
X197007619Y-108072380D01*
X196864761Y-108024761D01*
X196769523Y-107929523D01*
X196721904Y-107834285D01*
X196674285Y-107643809D01*
X196674285Y-107500952D01*
X196721904Y-107310476D01*
X196769523Y-107215238D01*
X196864761Y-107120000D01*
X197007619Y-107072380D01*
X197102857Y-107072380D01*
X197245714Y-107120000D01*
X197293333Y-107167619D01*
X198245714Y-108072380D02*
X197674285Y-108072380D01*
X197960000Y-108072380D02*
X197960000Y-107072380D01*
X197864761Y-107215238D01*
X197769523Y-107310476D01*
X197674285Y-107358095D01*
%TD*%
M02*
