%TF.GenerationSoftware,KiCad,Pcbnew,(5.1.6-0-10_14)*%
%TF.CreationDate,2020-08-07T17:14:13-07:00*%
%TF.ProjectId,pockels_modulator_pcb,706f636b-656c-4735-9f6d-6f64756c6174,rev?*%
%TF.SameCoordinates,Original*%
%TF.FileFunction,Copper,L2,Bot*%
%TF.FilePolarity,Positive*%
%FSLAX46Y46*%
G04 Gerber Fmt 4.6, Leading zero omitted, Abs format (unit mm)*
G04 Created by KiCad (PCBNEW (5.1.6-0-10_14)) date 2020-08-07 17:14:13*
%MOMM*%
%LPD*%
G01*
G04 APERTURE LIST*
%TA.AperFunction,ComponentPad*%
%ADD10C,4.000000*%
%TD*%
%TA.AperFunction,ComponentPad*%
%ADD11C,2.000000*%
%TD*%
%TA.AperFunction,Conductor*%
%ADD12R,0.950000X0.460000*%
%TD*%
%TA.AperFunction,SMDPad,CuDef*%
%ADD13R,5.080000X1.600000*%
%TD*%
%TA.AperFunction,ViaPad*%
%ADD14C,0.800000*%
%TD*%
%TA.AperFunction,Conductor*%
%ADD15C,0.250000*%
%TD*%
%TA.AperFunction,Conductor*%
%ADD16C,0.254000*%
%TD*%
G04 APERTURE END LIST*
D10*
%TO.P,H4,1*%
%TO.N,GND*%
X208000000Y-108000000D03*
%TD*%
%TO.P,H3,1*%
%TO.N,GND*%
X192000000Y-108000000D03*
%TD*%
%TO.P,H2,1*%
%TO.N,GND*%
X192000000Y-92000000D03*
%TD*%
%TO.P,H1,1*%
%TO.N,GND*%
X208000000Y-92000000D03*
%TD*%
D11*
%TO.P,TP2,1*%
%TO.N,GND*%
X181991000Y-90932000D03*
%TD*%
%TO.P,TP1,1*%
%TO.N,Net-(C1-Pad1)*%
X181737000Y-109093000D03*
%TD*%
D12*
%TO.N,GND*%
%TO.C,J1*%
X182695000Y-103186000D03*
X182695000Y-97474000D03*
D13*
%TD*%
%TO.P,J1,2*%
%TO.N,GND*%
X179705000Y-103100000D03*
%TO.P,J1,2*%
%TO.N,GND*%
X179705000Y-97560000D03*
%TD*%
D14*
%TO.N,GND*%
X182880000Y-103251000D03*
X182880000Y-97409000D03*
X188341000Y-94869000D03*
X191135000Y-102489000D03*
X205740000Y-100076000D03*
X199898000Y-94361000D03*
X199898000Y-105664000D03*
%TD*%
D15*
%TO.N,GND*%
X179705000Y-97560000D02*
X184253000Y-97560000D01*
X179705000Y-103100000D02*
X185444000Y-103100000D01*
X179705000Y-103100000D02*
X179705000Y-104902000D01*
X182609000Y-97560000D02*
X182695000Y-97474000D01*
X179705000Y-97560000D02*
X182609000Y-97560000D01*
%TD*%
D16*
%TO.N,GND*%
G36*
X215240000Y-111240000D02*
G01*
X177190000Y-111240000D01*
X177190000Y-108931967D01*
X180102000Y-108931967D01*
X180102000Y-109254033D01*
X180164832Y-109569912D01*
X180288082Y-109867463D01*
X180467013Y-110135252D01*
X180694748Y-110362987D01*
X180962537Y-110541918D01*
X181260088Y-110665168D01*
X181575967Y-110728000D01*
X181898033Y-110728000D01*
X182213912Y-110665168D01*
X182511463Y-110541918D01*
X182779252Y-110362987D01*
X183006987Y-110135252D01*
X183185918Y-109867463D01*
X183194187Y-109847499D01*
X190332106Y-109847499D01*
X190548228Y-110214258D01*
X191008105Y-110454938D01*
X191506098Y-110601275D01*
X192023071Y-110647648D01*
X192539159Y-110592273D01*
X193034526Y-110437279D01*
X193451772Y-110214258D01*
X193667894Y-109847499D01*
X206332106Y-109847499D01*
X206548228Y-110214258D01*
X207008105Y-110454938D01*
X207506098Y-110601275D01*
X208023071Y-110647648D01*
X208539159Y-110592273D01*
X209034526Y-110437279D01*
X209451772Y-110214258D01*
X209667894Y-109847499D01*
X208000000Y-108179605D01*
X206332106Y-109847499D01*
X193667894Y-109847499D01*
X192000000Y-108179605D01*
X190332106Y-109847499D01*
X183194187Y-109847499D01*
X183309168Y-109569912D01*
X183372000Y-109254033D01*
X183372000Y-108931967D01*
X183309168Y-108616088D01*
X183185918Y-108318537D01*
X183006987Y-108050748D01*
X182979310Y-108023071D01*
X189352352Y-108023071D01*
X189407727Y-108539159D01*
X189562721Y-109034526D01*
X189785742Y-109451772D01*
X190152501Y-109667894D01*
X191820395Y-108000000D01*
X192179605Y-108000000D01*
X193847499Y-109667894D01*
X194214258Y-109451772D01*
X194454938Y-108991895D01*
X194601275Y-108493902D01*
X194643509Y-108023071D01*
X205352352Y-108023071D01*
X205407727Y-108539159D01*
X205562721Y-109034526D01*
X205785742Y-109451772D01*
X206152501Y-109667894D01*
X207820395Y-108000000D01*
X208179605Y-108000000D01*
X209847499Y-109667894D01*
X210214258Y-109451772D01*
X210454938Y-108991895D01*
X210601275Y-108493902D01*
X210647648Y-107976929D01*
X210592273Y-107460841D01*
X210437279Y-106965474D01*
X210214258Y-106548228D01*
X209847499Y-106332106D01*
X208179605Y-108000000D01*
X207820395Y-108000000D01*
X206152501Y-106332106D01*
X205785742Y-106548228D01*
X205545062Y-107008105D01*
X205398725Y-107506098D01*
X205352352Y-108023071D01*
X194643509Y-108023071D01*
X194647648Y-107976929D01*
X194592273Y-107460841D01*
X194437279Y-106965474D01*
X194214258Y-106548228D01*
X193847499Y-106332106D01*
X192179605Y-108000000D01*
X191820395Y-108000000D01*
X190152501Y-106332106D01*
X189785742Y-106548228D01*
X189545062Y-107008105D01*
X189398725Y-107506098D01*
X189352352Y-108023071D01*
X182979310Y-108023071D01*
X182779252Y-107823013D01*
X182511463Y-107644082D01*
X182213912Y-107520832D01*
X181898033Y-107458000D01*
X181575967Y-107458000D01*
X181260088Y-107520832D01*
X180962537Y-107644082D01*
X180694748Y-107823013D01*
X180467013Y-108050748D01*
X180288082Y-108318537D01*
X180164832Y-108616088D01*
X180102000Y-108931967D01*
X177190000Y-108931967D01*
X177190000Y-106152501D01*
X190332106Y-106152501D01*
X192000000Y-107820395D01*
X193667894Y-106152501D01*
X206332106Y-106152501D01*
X208000000Y-107820395D01*
X209667894Y-106152501D01*
X209451772Y-105785742D01*
X208991895Y-105545062D01*
X208493902Y-105398725D01*
X207976929Y-105352352D01*
X207460841Y-105407727D01*
X206965474Y-105562721D01*
X206548228Y-105785742D01*
X206332106Y-106152501D01*
X193667894Y-106152501D01*
X193451772Y-105785742D01*
X192991895Y-105545062D01*
X192493902Y-105398725D01*
X191976929Y-105352352D01*
X191460841Y-105407727D01*
X190965474Y-105562721D01*
X190548228Y-105785742D01*
X190332106Y-106152501D01*
X177190000Y-106152501D01*
X177190000Y-104538038D01*
X179419250Y-104535000D01*
X179578000Y-104376250D01*
X179578000Y-103227000D01*
X179832000Y-103227000D01*
X179832000Y-104376250D01*
X179990750Y-104535000D01*
X182245000Y-104538072D01*
X182369482Y-104525812D01*
X182489180Y-104489502D01*
X182599494Y-104430537D01*
X182696185Y-104351185D01*
X182775537Y-104254494D01*
X182834502Y-104144180D01*
X182870812Y-104024482D01*
X182878291Y-103948541D01*
X182980750Y-104051000D01*
X183157221Y-104053944D01*
X183281923Y-104044179D01*
X183402324Y-104010274D01*
X183513797Y-103953531D01*
X183612058Y-103876131D01*
X183693331Y-103781048D01*
X183754493Y-103671937D01*
X183793193Y-103552990D01*
X183805000Y-103447750D01*
X183646250Y-103289000D01*
X182822000Y-103289000D01*
X182822000Y-103327750D01*
X182721250Y-103227000D01*
X179832000Y-103227000D01*
X179578000Y-103227000D01*
X179558000Y-103227000D01*
X179558000Y-102973000D01*
X179578000Y-102973000D01*
X179578000Y-101823750D01*
X179832000Y-101823750D01*
X179832000Y-102973000D01*
X181633750Y-102973000D01*
X181743750Y-103083000D01*
X182568000Y-103083000D01*
X182568000Y-103039000D01*
X182822000Y-103039000D01*
X182822000Y-103083000D01*
X183646250Y-103083000D01*
X183805000Y-102924250D01*
X183793193Y-102819010D01*
X183754493Y-102700063D01*
X183693331Y-102590952D01*
X183612058Y-102495869D01*
X183513797Y-102418469D01*
X183402324Y-102361726D01*
X183281923Y-102327821D01*
X183157221Y-102318056D01*
X182980750Y-102321000D01*
X182882359Y-102419391D01*
X182883072Y-102300000D01*
X182870812Y-102175518D01*
X182834502Y-102055820D01*
X182775537Y-101945506D01*
X182696185Y-101848815D01*
X182599494Y-101769463D01*
X182489180Y-101710498D01*
X182369482Y-101674188D01*
X182245000Y-101661928D01*
X179990750Y-101665000D01*
X179832000Y-101823750D01*
X179578000Y-101823750D01*
X179419250Y-101665000D01*
X177190000Y-101661962D01*
X177190000Y-98998038D01*
X179419250Y-98995000D01*
X179578000Y-98836250D01*
X179578000Y-97687000D01*
X179832000Y-97687000D01*
X179832000Y-98836250D01*
X179990750Y-98995000D01*
X182245000Y-98998072D01*
X182369482Y-98985812D01*
X182489180Y-98949502D01*
X182599494Y-98890537D01*
X182696185Y-98811185D01*
X182775537Y-98714494D01*
X182834502Y-98604180D01*
X182870812Y-98484482D01*
X182883072Y-98360000D01*
X182882359Y-98240609D01*
X182980750Y-98339000D01*
X183157221Y-98341944D01*
X183281923Y-98332179D01*
X183402324Y-98298274D01*
X183513797Y-98241531D01*
X183612058Y-98164131D01*
X183693331Y-98069048D01*
X183754493Y-97959937D01*
X183793193Y-97840990D01*
X183805000Y-97735750D01*
X183646250Y-97577000D01*
X182822000Y-97577000D01*
X182822000Y-97621000D01*
X182568000Y-97621000D01*
X182568000Y-97577000D01*
X181743750Y-97577000D01*
X181633750Y-97687000D01*
X179832000Y-97687000D01*
X179578000Y-97687000D01*
X179558000Y-97687000D01*
X179558000Y-97433000D01*
X179578000Y-97433000D01*
X179578000Y-96283750D01*
X179832000Y-96283750D01*
X179832000Y-97433000D01*
X182721250Y-97433000D01*
X182822000Y-97332250D01*
X182822000Y-97371000D01*
X183646250Y-97371000D01*
X183805000Y-97212250D01*
X183793193Y-97107010D01*
X183754493Y-96988063D01*
X183693331Y-96878952D01*
X183612058Y-96783869D01*
X183513797Y-96706469D01*
X183402324Y-96649726D01*
X183281923Y-96615821D01*
X183157221Y-96606056D01*
X182980750Y-96609000D01*
X182878291Y-96711459D01*
X182870812Y-96635518D01*
X182834502Y-96515820D01*
X182775537Y-96405506D01*
X182696185Y-96308815D01*
X182599494Y-96229463D01*
X182489180Y-96170498D01*
X182369482Y-96134188D01*
X182245000Y-96121928D01*
X179990750Y-96125000D01*
X179832000Y-96283750D01*
X179578000Y-96283750D01*
X179419250Y-96125000D01*
X177190000Y-96121962D01*
X177190000Y-93847499D01*
X190332106Y-93847499D01*
X190548228Y-94214258D01*
X191008105Y-94454938D01*
X191506098Y-94601275D01*
X192023071Y-94647648D01*
X192539159Y-94592273D01*
X193034526Y-94437279D01*
X193451772Y-94214258D01*
X193667894Y-93847499D01*
X206332106Y-93847499D01*
X206548228Y-94214258D01*
X207008105Y-94454938D01*
X207506098Y-94601275D01*
X208023071Y-94647648D01*
X208539159Y-94592273D01*
X209034526Y-94437279D01*
X209451772Y-94214258D01*
X209667894Y-93847499D01*
X208000000Y-92179605D01*
X206332106Y-93847499D01*
X193667894Y-93847499D01*
X192000000Y-92179605D01*
X190332106Y-93847499D01*
X177190000Y-93847499D01*
X177190000Y-92067413D01*
X181035192Y-92067413D01*
X181130956Y-92331814D01*
X181420571Y-92472704D01*
X181732108Y-92554384D01*
X182053595Y-92573718D01*
X182372675Y-92529961D01*
X182677088Y-92424795D01*
X182851044Y-92331814D01*
X182946808Y-92067413D01*
X182902466Y-92023071D01*
X189352352Y-92023071D01*
X189407727Y-92539159D01*
X189562721Y-93034526D01*
X189785742Y-93451772D01*
X190152501Y-93667894D01*
X191820395Y-92000000D01*
X192179605Y-92000000D01*
X193847499Y-93667894D01*
X194214258Y-93451772D01*
X194454938Y-92991895D01*
X194601275Y-92493902D01*
X194643509Y-92023071D01*
X205352352Y-92023071D01*
X205407727Y-92539159D01*
X205562721Y-93034526D01*
X205785742Y-93451772D01*
X206152501Y-93667894D01*
X207820395Y-92000000D01*
X208179605Y-92000000D01*
X209847499Y-93667894D01*
X210214258Y-93451772D01*
X210454938Y-92991895D01*
X210601275Y-92493902D01*
X210647648Y-91976929D01*
X210592273Y-91460841D01*
X210437279Y-90965474D01*
X210214258Y-90548228D01*
X209847499Y-90332106D01*
X208179605Y-92000000D01*
X207820395Y-92000000D01*
X206152501Y-90332106D01*
X205785742Y-90548228D01*
X205545062Y-91008105D01*
X205398725Y-91506098D01*
X205352352Y-92023071D01*
X194643509Y-92023071D01*
X194647648Y-91976929D01*
X194592273Y-91460841D01*
X194437279Y-90965474D01*
X194214258Y-90548228D01*
X193847499Y-90332106D01*
X192179605Y-92000000D01*
X191820395Y-92000000D01*
X190152501Y-90332106D01*
X189785742Y-90548228D01*
X189545062Y-91008105D01*
X189398725Y-91506098D01*
X189352352Y-92023071D01*
X182902466Y-92023071D01*
X181991000Y-91111605D01*
X181035192Y-92067413D01*
X177190000Y-92067413D01*
X177190000Y-90994595D01*
X180349282Y-90994595D01*
X180393039Y-91313675D01*
X180498205Y-91618088D01*
X180591186Y-91792044D01*
X180855587Y-91887808D01*
X181811395Y-90932000D01*
X182170605Y-90932000D01*
X183126413Y-91887808D01*
X183390814Y-91792044D01*
X183531704Y-91502429D01*
X183613384Y-91190892D01*
X183632718Y-90869405D01*
X183588961Y-90550325D01*
X183483795Y-90245912D01*
X183433867Y-90152501D01*
X190332106Y-90152501D01*
X192000000Y-91820395D01*
X193667894Y-90152501D01*
X206332106Y-90152501D01*
X208000000Y-91820395D01*
X209667894Y-90152501D01*
X209451772Y-89785742D01*
X208991895Y-89545062D01*
X208493902Y-89398725D01*
X207976929Y-89352352D01*
X207460841Y-89407727D01*
X206965474Y-89562721D01*
X206548228Y-89785742D01*
X206332106Y-90152501D01*
X193667894Y-90152501D01*
X193451772Y-89785742D01*
X192991895Y-89545062D01*
X192493902Y-89398725D01*
X191976929Y-89352352D01*
X191460841Y-89407727D01*
X190965474Y-89562721D01*
X190548228Y-89785742D01*
X190332106Y-90152501D01*
X183433867Y-90152501D01*
X183390814Y-90071956D01*
X183126413Y-89976192D01*
X182170605Y-90932000D01*
X181811395Y-90932000D01*
X180855587Y-89976192D01*
X180591186Y-90071956D01*
X180450296Y-90361571D01*
X180368616Y-90673108D01*
X180349282Y-90994595D01*
X177190000Y-90994595D01*
X177190000Y-89796587D01*
X181035192Y-89796587D01*
X181991000Y-90752395D01*
X182946808Y-89796587D01*
X182851044Y-89532186D01*
X182561429Y-89391296D01*
X182249892Y-89309616D01*
X181928405Y-89290282D01*
X181609325Y-89334039D01*
X181304912Y-89439205D01*
X181130956Y-89532186D01*
X181035192Y-89796587D01*
X177190000Y-89796587D01*
X177190000Y-88760000D01*
X215240001Y-88760000D01*
X215240000Y-111240000D01*
G37*
X215240000Y-111240000D02*
X177190000Y-111240000D01*
X177190000Y-108931967D01*
X180102000Y-108931967D01*
X180102000Y-109254033D01*
X180164832Y-109569912D01*
X180288082Y-109867463D01*
X180467013Y-110135252D01*
X180694748Y-110362987D01*
X180962537Y-110541918D01*
X181260088Y-110665168D01*
X181575967Y-110728000D01*
X181898033Y-110728000D01*
X182213912Y-110665168D01*
X182511463Y-110541918D01*
X182779252Y-110362987D01*
X183006987Y-110135252D01*
X183185918Y-109867463D01*
X183194187Y-109847499D01*
X190332106Y-109847499D01*
X190548228Y-110214258D01*
X191008105Y-110454938D01*
X191506098Y-110601275D01*
X192023071Y-110647648D01*
X192539159Y-110592273D01*
X193034526Y-110437279D01*
X193451772Y-110214258D01*
X193667894Y-109847499D01*
X206332106Y-109847499D01*
X206548228Y-110214258D01*
X207008105Y-110454938D01*
X207506098Y-110601275D01*
X208023071Y-110647648D01*
X208539159Y-110592273D01*
X209034526Y-110437279D01*
X209451772Y-110214258D01*
X209667894Y-109847499D01*
X208000000Y-108179605D01*
X206332106Y-109847499D01*
X193667894Y-109847499D01*
X192000000Y-108179605D01*
X190332106Y-109847499D01*
X183194187Y-109847499D01*
X183309168Y-109569912D01*
X183372000Y-109254033D01*
X183372000Y-108931967D01*
X183309168Y-108616088D01*
X183185918Y-108318537D01*
X183006987Y-108050748D01*
X182979310Y-108023071D01*
X189352352Y-108023071D01*
X189407727Y-108539159D01*
X189562721Y-109034526D01*
X189785742Y-109451772D01*
X190152501Y-109667894D01*
X191820395Y-108000000D01*
X192179605Y-108000000D01*
X193847499Y-109667894D01*
X194214258Y-109451772D01*
X194454938Y-108991895D01*
X194601275Y-108493902D01*
X194643509Y-108023071D01*
X205352352Y-108023071D01*
X205407727Y-108539159D01*
X205562721Y-109034526D01*
X205785742Y-109451772D01*
X206152501Y-109667894D01*
X207820395Y-108000000D01*
X208179605Y-108000000D01*
X209847499Y-109667894D01*
X210214258Y-109451772D01*
X210454938Y-108991895D01*
X210601275Y-108493902D01*
X210647648Y-107976929D01*
X210592273Y-107460841D01*
X210437279Y-106965474D01*
X210214258Y-106548228D01*
X209847499Y-106332106D01*
X208179605Y-108000000D01*
X207820395Y-108000000D01*
X206152501Y-106332106D01*
X205785742Y-106548228D01*
X205545062Y-107008105D01*
X205398725Y-107506098D01*
X205352352Y-108023071D01*
X194643509Y-108023071D01*
X194647648Y-107976929D01*
X194592273Y-107460841D01*
X194437279Y-106965474D01*
X194214258Y-106548228D01*
X193847499Y-106332106D01*
X192179605Y-108000000D01*
X191820395Y-108000000D01*
X190152501Y-106332106D01*
X189785742Y-106548228D01*
X189545062Y-107008105D01*
X189398725Y-107506098D01*
X189352352Y-108023071D01*
X182979310Y-108023071D01*
X182779252Y-107823013D01*
X182511463Y-107644082D01*
X182213912Y-107520832D01*
X181898033Y-107458000D01*
X181575967Y-107458000D01*
X181260088Y-107520832D01*
X180962537Y-107644082D01*
X180694748Y-107823013D01*
X180467013Y-108050748D01*
X180288082Y-108318537D01*
X180164832Y-108616088D01*
X180102000Y-108931967D01*
X177190000Y-108931967D01*
X177190000Y-106152501D01*
X190332106Y-106152501D01*
X192000000Y-107820395D01*
X193667894Y-106152501D01*
X206332106Y-106152501D01*
X208000000Y-107820395D01*
X209667894Y-106152501D01*
X209451772Y-105785742D01*
X208991895Y-105545062D01*
X208493902Y-105398725D01*
X207976929Y-105352352D01*
X207460841Y-105407727D01*
X206965474Y-105562721D01*
X206548228Y-105785742D01*
X206332106Y-106152501D01*
X193667894Y-106152501D01*
X193451772Y-105785742D01*
X192991895Y-105545062D01*
X192493902Y-105398725D01*
X191976929Y-105352352D01*
X191460841Y-105407727D01*
X190965474Y-105562721D01*
X190548228Y-105785742D01*
X190332106Y-106152501D01*
X177190000Y-106152501D01*
X177190000Y-104538038D01*
X179419250Y-104535000D01*
X179578000Y-104376250D01*
X179578000Y-103227000D01*
X179832000Y-103227000D01*
X179832000Y-104376250D01*
X179990750Y-104535000D01*
X182245000Y-104538072D01*
X182369482Y-104525812D01*
X182489180Y-104489502D01*
X182599494Y-104430537D01*
X182696185Y-104351185D01*
X182775537Y-104254494D01*
X182834502Y-104144180D01*
X182870812Y-104024482D01*
X182878291Y-103948541D01*
X182980750Y-104051000D01*
X183157221Y-104053944D01*
X183281923Y-104044179D01*
X183402324Y-104010274D01*
X183513797Y-103953531D01*
X183612058Y-103876131D01*
X183693331Y-103781048D01*
X183754493Y-103671937D01*
X183793193Y-103552990D01*
X183805000Y-103447750D01*
X183646250Y-103289000D01*
X182822000Y-103289000D01*
X182822000Y-103327750D01*
X182721250Y-103227000D01*
X179832000Y-103227000D01*
X179578000Y-103227000D01*
X179558000Y-103227000D01*
X179558000Y-102973000D01*
X179578000Y-102973000D01*
X179578000Y-101823750D01*
X179832000Y-101823750D01*
X179832000Y-102973000D01*
X181633750Y-102973000D01*
X181743750Y-103083000D01*
X182568000Y-103083000D01*
X182568000Y-103039000D01*
X182822000Y-103039000D01*
X182822000Y-103083000D01*
X183646250Y-103083000D01*
X183805000Y-102924250D01*
X183793193Y-102819010D01*
X183754493Y-102700063D01*
X183693331Y-102590952D01*
X183612058Y-102495869D01*
X183513797Y-102418469D01*
X183402324Y-102361726D01*
X183281923Y-102327821D01*
X183157221Y-102318056D01*
X182980750Y-102321000D01*
X182882359Y-102419391D01*
X182883072Y-102300000D01*
X182870812Y-102175518D01*
X182834502Y-102055820D01*
X182775537Y-101945506D01*
X182696185Y-101848815D01*
X182599494Y-101769463D01*
X182489180Y-101710498D01*
X182369482Y-101674188D01*
X182245000Y-101661928D01*
X179990750Y-101665000D01*
X179832000Y-101823750D01*
X179578000Y-101823750D01*
X179419250Y-101665000D01*
X177190000Y-101661962D01*
X177190000Y-98998038D01*
X179419250Y-98995000D01*
X179578000Y-98836250D01*
X179578000Y-97687000D01*
X179832000Y-97687000D01*
X179832000Y-98836250D01*
X179990750Y-98995000D01*
X182245000Y-98998072D01*
X182369482Y-98985812D01*
X182489180Y-98949502D01*
X182599494Y-98890537D01*
X182696185Y-98811185D01*
X182775537Y-98714494D01*
X182834502Y-98604180D01*
X182870812Y-98484482D01*
X182883072Y-98360000D01*
X182882359Y-98240609D01*
X182980750Y-98339000D01*
X183157221Y-98341944D01*
X183281923Y-98332179D01*
X183402324Y-98298274D01*
X183513797Y-98241531D01*
X183612058Y-98164131D01*
X183693331Y-98069048D01*
X183754493Y-97959937D01*
X183793193Y-97840990D01*
X183805000Y-97735750D01*
X183646250Y-97577000D01*
X182822000Y-97577000D01*
X182822000Y-97621000D01*
X182568000Y-97621000D01*
X182568000Y-97577000D01*
X181743750Y-97577000D01*
X181633750Y-97687000D01*
X179832000Y-97687000D01*
X179578000Y-97687000D01*
X179558000Y-97687000D01*
X179558000Y-97433000D01*
X179578000Y-97433000D01*
X179578000Y-96283750D01*
X179832000Y-96283750D01*
X179832000Y-97433000D01*
X182721250Y-97433000D01*
X182822000Y-97332250D01*
X182822000Y-97371000D01*
X183646250Y-97371000D01*
X183805000Y-97212250D01*
X183793193Y-97107010D01*
X183754493Y-96988063D01*
X183693331Y-96878952D01*
X183612058Y-96783869D01*
X183513797Y-96706469D01*
X183402324Y-96649726D01*
X183281923Y-96615821D01*
X183157221Y-96606056D01*
X182980750Y-96609000D01*
X182878291Y-96711459D01*
X182870812Y-96635518D01*
X182834502Y-96515820D01*
X182775537Y-96405506D01*
X182696185Y-96308815D01*
X182599494Y-96229463D01*
X182489180Y-96170498D01*
X182369482Y-96134188D01*
X182245000Y-96121928D01*
X179990750Y-96125000D01*
X179832000Y-96283750D01*
X179578000Y-96283750D01*
X179419250Y-96125000D01*
X177190000Y-96121962D01*
X177190000Y-93847499D01*
X190332106Y-93847499D01*
X190548228Y-94214258D01*
X191008105Y-94454938D01*
X191506098Y-94601275D01*
X192023071Y-94647648D01*
X192539159Y-94592273D01*
X193034526Y-94437279D01*
X193451772Y-94214258D01*
X193667894Y-93847499D01*
X206332106Y-93847499D01*
X206548228Y-94214258D01*
X207008105Y-94454938D01*
X207506098Y-94601275D01*
X208023071Y-94647648D01*
X208539159Y-94592273D01*
X209034526Y-94437279D01*
X209451772Y-94214258D01*
X209667894Y-93847499D01*
X208000000Y-92179605D01*
X206332106Y-93847499D01*
X193667894Y-93847499D01*
X192000000Y-92179605D01*
X190332106Y-93847499D01*
X177190000Y-93847499D01*
X177190000Y-92067413D01*
X181035192Y-92067413D01*
X181130956Y-92331814D01*
X181420571Y-92472704D01*
X181732108Y-92554384D01*
X182053595Y-92573718D01*
X182372675Y-92529961D01*
X182677088Y-92424795D01*
X182851044Y-92331814D01*
X182946808Y-92067413D01*
X182902466Y-92023071D01*
X189352352Y-92023071D01*
X189407727Y-92539159D01*
X189562721Y-93034526D01*
X189785742Y-93451772D01*
X190152501Y-93667894D01*
X191820395Y-92000000D01*
X192179605Y-92000000D01*
X193847499Y-93667894D01*
X194214258Y-93451772D01*
X194454938Y-92991895D01*
X194601275Y-92493902D01*
X194643509Y-92023071D01*
X205352352Y-92023071D01*
X205407727Y-92539159D01*
X205562721Y-93034526D01*
X205785742Y-93451772D01*
X206152501Y-93667894D01*
X207820395Y-92000000D01*
X208179605Y-92000000D01*
X209847499Y-93667894D01*
X210214258Y-93451772D01*
X210454938Y-92991895D01*
X210601275Y-92493902D01*
X210647648Y-91976929D01*
X210592273Y-91460841D01*
X210437279Y-90965474D01*
X210214258Y-90548228D01*
X209847499Y-90332106D01*
X208179605Y-92000000D01*
X207820395Y-92000000D01*
X206152501Y-90332106D01*
X205785742Y-90548228D01*
X205545062Y-91008105D01*
X205398725Y-91506098D01*
X205352352Y-92023071D01*
X194643509Y-92023071D01*
X194647648Y-91976929D01*
X194592273Y-91460841D01*
X194437279Y-90965474D01*
X194214258Y-90548228D01*
X193847499Y-90332106D01*
X192179605Y-92000000D01*
X191820395Y-92000000D01*
X190152501Y-90332106D01*
X189785742Y-90548228D01*
X189545062Y-91008105D01*
X189398725Y-91506098D01*
X189352352Y-92023071D01*
X182902466Y-92023071D01*
X181991000Y-91111605D01*
X181035192Y-92067413D01*
X177190000Y-92067413D01*
X177190000Y-90994595D01*
X180349282Y-90994595D01*
X180393039Y-91313675D01*
X180498205Y-91618088D01*
X180591186Y-91792044D01*
X180855587Y-91887808D01*
X181811395Y-90932000D01*
X182170605Y-90932000D01*
X183126413Y-91887808D01*
X183390814Y-91792044D01*
X183531704Y-91502429D01*
X183613384Y-91190892D01*
X183632718Y-90869405D01*
X183588961Y-90550325D01*
X183483795Y-90245912D01*
X183433867Y-90152501D01*
X190332106Y-90152501D01*
X192000000Y-91820395D01*
X193667894Y-90152501D01*
X206332106Y-90152501D01*
X208000000Y-91820395D01*
X209667894Y-90152501D01*
X209451772Y-89785742D01*
X208991895Y-89545062D01*
X208493902Y-89398725D01*
X207976929Y-89352352D01*
X207460841Y-89407727D01*
X206965474Y-89562721D01*
X206548228Y-89785742D01*
X206332106Y-90152501D01*
X193667894Y-90152501D01*
X193451772Y-89785742D01*
X192991895Y-89545062D01*
X192493902Y-89398725D01*
X191976929Y-89352352D01*
X191460841Y-89407727D01*
X190965474Y-89562721D01*
X190548228Y-89785742D01*
X190332106Y-90152501D01*
X183433867Y-90152501D01*
X183390814Y-90071956D01*
X183126413Y-89976192D01*
X182170605Y-90932000D01*
X181811395Y-90932000D01*
X180855587Y-89976192D01*
X180591186Y-90071956D01*
X180450296Y-90361571D01*
X180368616Y-90673108D01*
X180349282Y-90994595D01*
X177190000Y-90994595D01*
X177190000Y-89796587D01*
X181035192Y-89796587D01*
X181991000Y-90752395D01*
X182946808Y-89796587D01*
X182851044Y-89532186D01*
X182561429Y-89391296D01*
X182249892Y-89309616D01*
X181928405Y-89290282D01*
X181609325Y-89334039D01*
X181304912Y-89439205D01*
X181130956Y-89532186D01*
X181035192Y-89796587D01*
X177190000Y-89796587D01*
X177190000Y-88760000D01*
X215240001Y-88760000D01*
X215240000Y-111240000D01*
%TD*%
M02*
