%TF.GenerationSoftware,KiCad,Pcbnew,(5.1.6-0-10_14)*%
%TF.CreationDate,2022-03-24T08:42:33-07:00*%
%TF.ProjectId,pockels_modulator_pcb,706f636b-656c-4735-9f6d-6f64756c6174,rev?*%
%TF.SameCoordinates,Original*%
%TF.FileFunction,Copper,L1,Top*%
%TF.FilePolarity,Positive*%
%FSLAX46Y46*%
G04 Gerber Fmt 4.6, Leading zero omitted, Abs format (unit mm)*
G04 Created by KiCad (PCBNEW (5.1.6-0-10_14)) date 2022-03-24 08:42:33*
%MOMM*%
%LPD*%
G01*
G04 APERTURE LIST*
%TA.AperFunction,ComponentPad*%
%ADD10C,4.000000*%
%TD*%
%TA.AperFunction,SMDPad,CuDef*%
%ADD11R,5.080000X1.600000*%
%TD*%
%TA.AperFunction,SMDPad,CuDef*%
%ADD12R,1.500000X5.000000*%
%TD*%
%TA.AperFunction,SMDPad,CuDef*%
%ADD13R,5.000000X5.000000*%
%TD*%
%TA.AperFunction,ComponentPad*%
%ADD14C,0.500000*%
%TD*%
%TA.AperFunction,ComponentPad*%
%ADD15C,2.000000*%
%TD*%
%TA.AperFunction,ViaPad*%
%ADD16C,0.800000*%
%TD*%
%TA.AperFunction,Conductor*%
%ADD17C,0.250000*%
%TD*%
G04 APERTURE END LIST*
D10*
%TO.P,H4,1*%
%TO.N,GND*%
X208000000Y-108000000D03*
%TD*%
%TO.P,H1,1*%
%TO.N,GND*%
X208000000Y-92000000D03*
%TD*%
D11*
%TO.P,J1,2*%
%TO.N,GND*%
X191770000Y-102719000D03*
X191770000Y-97179000D03*
%TO.P,J1,1*%
%TO.N,Net-(C1-Pad1)*%
X191770000Y-99949000D03*
%TD*%
%TO.P,R1,2*%
%TO.N,GND*%
%TA.AperFunction,SMDPad,CuDef*%
G36*
G01*
X195003000Y-104832999D02*
X195003000Y-105733001D01*
G75*
G02*
X194753001Y-105983000I-249999J0D01*
G01*
X194102999Y-105983000D01*
G75*
G02*
X193853000Y-105733001I0J249999D01*
G01*
X193853000Y-104832999D01*
G75*
G02*
X194102999Y-104583000I249999J0D01*
G01*
X194753001Y-104583000D01*
G75*
G02*
X195003000Y-104832999I0J-249999D01*
G01*
G37*
%TD.AperFunction*%
%TO.P,R1,1*%
%TO.N,Net-(C1-Pad1)*%
%TA.AperFunction,SMDPad,CuDef*%
G36*
G01*
X197053000Y-104832999D02*
X197053000Y-105733001D01*
G75*
G02*
X196803001Y-105983000I-249999J0D01*
G01*
X196152999Y-105983000D01*
G75*
G02*
X195903000Y-105733001I0J249999D01*
G01*
X195903000Y-104832999D01*
G75*
G02*
X196152999Y-104583000I249999J0D01*
G01*
X196803001Y-104583000D01*
G75*
G02*
X197053000Y-104832999I0J-249999D01*
G01*
G37*
%TD.AperFunction*%
%TD*%
D12*
%TO.P,C1,1*%
%TO.N,Net-(C1-Pad1)*%
X195936000Y-100000000D03*
D13*
%TO.P,C1,2*%
%TO.N,GND*%
X200000000Y-100000000D03*
D14*
X200000000Y-100000000D03*
X201016000Y-100000000D03*
X202032000Y-100000000D03*
X202032000Y-101016000D03*
X201016000Y-101016000D03*
X200000000Y-101016000D03*
X200000000Y-102032000D03*
X201016000Y-102032000D03*
X202032000Y-102032000D03*
X200000000Y-98984000D03*
X201016000Y-98984000D03*
X202032000Y-98984000D03*
X202032000Y-97968000D03*
X201016000Y-97968000D03*
X200000000Y-97968000D03*
X198984000Y-97968000D03*
X198984000Y-98984000D03*
X198984000Y-100000000D03*
X198984000Y-101016000D03*
X198984000Y-102032000D03*
X197968000Y-102032000D03*
X197968000Y-101016000D03*
X197968000Y-100000000D03*
X197968000Y-98984000D03*
X197968000Y-97968000D03*
%TD*%
D10*
%TO.P,H3,1*%
%TO.N,GND*%
X192000000Y-108000000D03*
%TD*%
%TO.P,H2,1*%
%TO.N,GND*%
X192000000Y-92000000D03*
%TD*%
D15*
%TO.P,TP2,1*%
%TO.N,GND*%
X201803000Y-93472000D03*
%TD*%
%TO.P,TP1,1*%
%TO.N,Net-(C1-Pad1)*%
X197485000Y-93345000D03*
%TD*%
%TO.P,D2,2*%
%TO.N,Net-(D1-Pad2)*%
%TA.AperFunction,SMDPad,CuDef*%
G36*
G01*
X203249000Y-104832999D02*
X203249000Y-105733001D01*
G75*
G02*
X202999001Y-105983000I-249999J0D01*
G01*
X202348999Y-105983000D01*
G75*
G02*
X202099000Y-105733001I0J249999D01*
G01*
X202099000Y-104832999D01*
G75*
G02*
X202348999Y-104583000I249999J0D01*
G01*
X202999001Y-104583000D01*
G75*
G02*
X203249000Y-104832999I0J-249999D01*
G01*
G37*
%TD.AperFunction*%
%TO.P,D2,1*%
%TO.N,GND*%
%TA.AperFunction,SMDPad,CuDef*%
G36*
G01*
X205299000Y-104832999D02*
X205299000Y-105733001D01*
G75*
G02*
X205049001Y-105983000I-249999J0D01*
G01*
X204398999Y-105983000D01*
G75*
G02*
X204149000Y-105733001I0J249999D01*
G01*
X204149000Y-104832999D01*
G75*
G02*
X204398999Y-104583000I249999J0D01*
G01*
X205049001Y-104583000D01*
G75*
G02*
X205299000Y-104832999I0J-249999D01*
G01*
G37*
%TD.AperFunction*%
%TD*%
%TO.P,D1,2*%
%TO.N,Net-(D1-Pad2)*%
%TA.AperFunction,SMDPad,CuDef*%
G36*
G01*
X200085000Y-105733001D02*
X200085000Y-104832999D01*
G75*
G02*
X200334999Y-104583000I249999J0D01*
G01*
X200985001Y-104583000D01*
G75*
G02*
X201235000Y-104832999I0J-249999D01*
G01*
X201235000Y-105733001D01*
G75*
G02*
X200985001Y-105983000I-249999J0D01*
G01*
X200334999Y-105983000D01*
G75*
G02*
X200085000Y-105733001I0J249999D01*
G01*
G37*
%TD.AperFunction*%
%TO.P,D1,1*%
%TO.N,Net-(C1-Pad1)*%
%TA.AperFunction,SMDPad,CuDef*%
G36*
G01*
X198035000Y-105733001D02*
X198035000Y-104832999D01*
G75*
G02*
X198284999Y-104583000I249999J0D01*
G01*
X198935001Y-104583000D01*
G75*
G02*
X199185000Y-104832999I0J-249999D01*
G01*
X199185000Y-105733001D01*
G75*
G02*
X198935001Y-105983000I-249999J0D01*
G01*
X198284999Y-105983000D01*
G75*
G02*
X198035000Y-105733001I0J249999D01*
G01*
G37*
%TD.AperFunction*%
%TD*%
D16*
%TO.N,GND*%
X204000000Y-100000000D03*
X205000000Y-103000000D03*
X192000000Y-95000000D03*
X191000000Y-105000000D03*
%TD*%
D17*
%TO.N,Net-(C1-Pad1)*%
X195885000Y-99949000D02*
X195936000Y-100000000D01*
X191770000Y-99949000D02*
X195885000Y-99949000D01*
X195936000Y-104741000D02*
X196478000Y-105283000D01*
X195936000Y-100000000D02*
X195936000Y-104741000D01*
X196478000Y-105283000D02*
X198610000Y-105283000D01*
X195936000Y-94894000D02*
X195936000Y-100000000D01*
X197485000Y-93345000D02*
X195936000Y-94894000D01*
%TO.N,Net-(D1-Pad2)*%
X200660000Y-105283000D02*
X202674000Y-105283000D01*
%TO.N,GND*%
X199898000Y-99898000D02*
X200000000Y-100000000D01*
X200076000Y-100076000D02*
X200000000Y-100000000D01*
X199898000Y-100102000D02*
X200000000Y-100000000D01*
X204724000Y-103276000D02*
X205000000Y-103000000D01*
X204724000Y-105283000D02*
X204724000Y-103276000D01*
X194428000Y-105572000D02*
X194428000Y-105283000D01*
X192000000Y-108000000D02*
X194428000Y-105572000D01*
X191770000Y-95230000D02*
X192000000Y-95000000D01*
X191770000Y-97179000D02*
X191770000Y-95230000D01*
X191770000Y-104230000D02*
X191000000Y-105000000D01*
X191770000Y-102719000D02*
X191770000Y-104230000D01*
%TD*%
M02*
