%TF.GenerationSoftware,KiCad,Pcbnew,(5.1.6-0-10_14)*%
%TF.CreationDate,2020-08-07T17:14:13-07:00*%
%TF.ProjectId,pockels_modulator_pcb,706f636b-656c-4735-9f6d-6f64756c6174,rev?*%
%TF.SameCoordinates,Original*%
%TF.FileFunction,Copper,L1,Top*%
%TF.FilePolarity,Positive*%
%FSLAX46Y46*%
G04 Gerber Fmt 4.6, Leading zero omitted, Abs format (unit mm)*
G04 Created by KiCad (PCBNEW (5.1.6-0-10_14)) date 2020-08-07 17:14:13*
%MOMM*%
%LPD*%
G01*
G04 APERTURE LIST*
%TA.AperFunction,ComponentPad*%
%ADD10C,4.000000*%
%TD*%
%TA.AperFunction,ComponentPad*%
%ADD11C,2.000000*%
%TD*%
%TA.AperFunction,Conductor*%
%ADD12R,0.950000X0.460000*%
%TD*%
%TA.AperFunction,SMDPad,CuDef*%
%ADD13R,5.080000X1.600000*%
%TD*%
%TA.AperFunction,SMDPad,CuDef*%
%ADD14R,10.000000X10.000000*%
%TD*%
%TA.AperFunction,SMDPad,CuDef*%
%ADD15R,1.500000X1.500000*%
%TD*%
%TA.AperFunction,ViaPad*%
%ADD16C,0.800000*%
%TD*%
%TA.AperFunction,Conductor*%
%ADD17C,0.250000*%
%TD*%
G04 APERTURE END LIST*
D10*
%TO.P,H4,1*%
%TO.N,GND*%
X208000000Y-108000000D03*
%TD*%
%TO.P,H3,1*%
%TO.N,GND*%
X192000000Y-108000000D03*
%TD*%
%TO.P,H2,1*%
%TO.N,GND*%
X192000000Y-92000000D03*
%TD*%
%TO.P,H1,1*%
%TO.N,GND*%
X208000000Y-92000000D03*
%TD*%
D11*
%TO.P,TP2,1*%
%TO.N,GND*%
X181991000Y-90932000D03*
%TD*%
%TO.P,TP1,1*%
%TO.N,Net-(C1-Pad1)*%
X181737000Y-109093000D03*
%TD*%
%TO.P,R1,2*%
%TO.N,GND*%
%TA.AperFunction,SMDPad,CuDef*%
G36*
G01*
X188791001Y-96841000D02*
X187890999Y-96841000D01*
G75*
G02*
X187641000Y-96591001I0J249999D01*
G01*
X187641000Y-95940999D01*
G75*
G02*
X187890999Y-95691000I249999J0D01*
G01*
X188791001Y-95691000D01*
G75*
G02*
X189041000Y-95940999I0J-249999D01*
G01*
X189041000Y-96591001D01*
G75*
G02*
X188791001Y-96841000I-249999J0D01*
G01*
G37*
%TD.AperFunction*%
%TO.P,R1,1*%
%TO.N,Net-(C1-Pad1)*%
%TA.AperFunction,SMDPad,CuDef*%
G36*
G01*
X188791001Y-98891000D02*
X187890999Y-98891000D01*
G75*
G02*
X187641000Y-98641001I0J249999D01*
G01*
X187641000Y-97990999D01*
G75*
G02*
X187890999Y-97741000I249999J0D01*
G01*
X188791001Y-97741000D01*
G75*
G02*
X189041000Y-97990999I0J-249999D01*
G01*
X189041000Y-98641001D01*
G75*
G02*
X188791001Y-98891000I-249999J0D01*
G01*
G37*
%TD.AperFunction*%
%TD*%
D12*
%TO.N,GND*%
%TO.C,J1*%
X182695000Y-103186000D03*
X182695000Y-97474000D03*
D13*
%TD*%
%TO.P,J1,2*%
%TO.N,GND*%
X179705000Y-103100000D03*
%TO.P,J1,2*%
%TO.N,GND*%
X179705000Y-97560000D03*
%TO.P,J1,1*%
%TO.N,Net-(C1-Pad1)*%
X179705000Y-100330000D03*
%TD*%
%TO.P,D2,2*%
%TO.N,Net-(D1-Pad2)*%
%TA.AperFunction,SMDPad,CuDef*%
G36*
G01*
X189551000Y-100641999D02*
X189551000Y-101542001D01*
G75*
G02*
X189301001Y-101792000I-249999J0D01*
G01*
X188650999Y-101792000D01*
G75*
G02*
X188401000Y-101542001I0J249999D01*
G01*
X188401000Y-100641999D01*
G75*
G02*
X188650999Y-100392000I249999J0D01*
G01*
X189301001Y-100392000D01*
G75*
G02*
X189551000Y-100641999I0J-249999D01*
G01*
G37*
%TD.AperFunction*%
%TO.P,D2,1*%
%TO.N,GND*%
%TA.AperFunction,SMDPad,CuDef*%
G36*
G01*
X191601000Y-100641999D02*
X191601000Y-101542001D01*
G75*
G02*
X191351001Y-101792000I-249999J0D01*
G01*
X190700999Y-101792000D01*
G75*
G02*
X190451000Y-101542001I0J249999D01*
G01*
X190451000Y-100641999D01*
G75*
G02*
X190700999Y-100392000I249999J0D01*
G01*
X191351001Y-100392000D01*
G75*
G02*
X191601000Y-100641999I0J-249999D01*
G01*
G37*
%TD.AperFunction*%
%TD*%
%TO.P,D1,2*%
%TO.N,Net-(D1-Pad2)*%
%TA.AperFunction,SMDPad,CuDef*%
G36*
G01*
X186632000Y-101542001D02*
X186632000Y-100641999D01*
G75*
G02*
X186881999Y-100392000I249999J0D01*
G01*
X187532001Y-100392000D01*
G75*
G02*
X187782000Y-100641999I0J-249999D01*
G01*
X187782000Y-101542001D01*
G75*
G02*
X187532001Y-101792000I-249999J0D01*
G01*
X186881999Y-101792000D01*
G75*
G02*
X186632000Y-101542001I0J249999D01*
G01*
G37*
%TD.AperFunction*%
%TO.P,D1,1*%
%TO.N,Net-(C1-Pad1)*%
%TA.AperFunction,SMDPad,CuDef*%
G36*
G01*
X184582000Y-101542001D02*
X184582000Y-100641999D01*
G75*
G02*
X184831999Y-100392000I249999J0D01*
G01*
X185482001Y-100392000D01*
G75*
G02*
X185732000Y-100641999I0J-249999D01*
G01*
X185732000Y-101542001D01*
G75*
G02*
X185482001Y-101792000I-249999J0D01*
G01*
X184831999Y-101792000D01*
G75*
G02*
X184582000Y-101542001I0J249999D01*
G01*
G37*
%TD.AperFunction*%
%TD*%
D14*
%TO.P,C1,2*%
%TO.N,GND*%
X200000000Y-100000000D03*
D15*
%TO.P,C1,1*%
%TO.N,Net-(C1-Pad1)*%
X194000000Y-100000000D03*
%TD*%
D16*
%TO.N,GND*%
X182880000Y-103251000D03*
X182880000Y-97409000D03*
X188341000Y-94869000D03*
X191135000Y-102489000D03*
X205740000Y-100076000D03*
X199898000Y-94361000D03*
X199898000Y-105664000D03*
%TD*%
D17*
%TO.N,Net-(C1-Pad1)*%
X190025000Y-100000000D02*
X188341000Y-98316000D01*
X194000000Y-100000000D02*
X190025000Y-100000000D01*
X187933000Y-98316000D02*
X185157000Y-101092000D01*
X188341000Y-98316000D02*
X187933000Y-98316000D01*
X180467000Y-101092000D02*
X179705000Y-100330000D01*
X185157000Y-101092000D02*
X180467000Y-101092000D01*
X185157000Y-105673000D02*
X185157000Y-101092000D01*
X181737000Y-109093000D02*
X185157000Y-105673000D01*
%TO.N,Net-(D1-Pad2)*%
X187207000Y-101092000D02*
X188976000Y-101092000D01*
%TO.N,GND*%
X188341000Y-94869000D02*
X188341000Y-96266000D01*
X191026000Y-102380000D02*
X191135000Y-102489000D01*
X191026000Y-101092000D02*
X191026000Y-102380000D01*
X199898000Y-99898000D02*
X200000000Y-100000000D01*
X199898000Y-94361000D02*
X199898000Y-99898000D01*
X200076000Y-100076000D02*
X200000000Y-100000000D01*
X205740000Y-100076000D02*
X200076000Y-100076000D01*
X199898000Y-100102000D02*
X200000000Y-100000000D01*
X199898000Y-105664000D02*
X199898000Y-100102000D01*
X182609000Y-97560000D02*
X182695000Y-97474000D01*
X179705000Y-97560000D02*
X182609000Y-97560000D01*
X182729000Y-103100000D02*
X182880000Y-103251000D01*
X179705000Y-103100000D02*
X182729000Y-103100000D01*
%TD*%
M02*
