%TF.GenerationSoftware,KiCad,Pcbnew,(5.1.6-0-10_14)*%
%TF.CreationDate,2022-03-24T08:42:33-07:00*%
%TF.ProjectId,pockels_modulator_pcb,706f636b-656c-4735-9f6d-6f64756c6174,rev?*%
%TF.SameCoordinates,Original*%
%TF.FileFunction,Copper,L2,Bot*%
%TF.FilePolarity,Positive*%
%FSLAX46Y46*%
G04 Gerber Fmt 4.6, Leading zero omitted, Abs format (unit mm)*
G04 Created by KiCad (PCBNEW (5.1.6-0-10_14)) date 2022-03-24 08:42:33*
%MOMM*%
%LPD*%
G01*
G04 APERTURE LIST*
%TA.AperFunction,ComponentPad*%
%ADD10C,4.000000*%
%TD*%
%TA.AperFunction,SMDPad,CuDef*%
%ADD11R,5.080000X1.600000*%
%TD*%
%TA.AperFunction,SMDPad,CuDef*%
%ADD12R,5.000000X5.000000*%
%TD*%
%TA.AperFunction,ComponentPad*%
%ADD13C,0.500000*%
%TD*%
%TA.AperFunction,ComponentPad*%
%ADD14C,2.000000*%
%TD*%
%TA.AperFunction,ViaPad*%
%ADD15C,0.800000*%
%TD*%
%TA.AperFunction,Conductor*%
%ADD16C,0.250000*%
%TD*%
%TA.AperFunction,Conductor*%
%ADD17C,0.254000*%
%TD*%
G04 APERTURE END LIST*
D10*
%TO.P,H4,1*%
%TO.N,GND*%
X208000000Y-108000000D03*
%TD*%
%TO.P,H1,1*%
%TO.N,GND*%
X208000000Y-92000000D03*
%TD*%
D11*
%TO.P,J1,2*%
%TO.N,GND*%
X191770000Y-102719000D03*
X191770000Y-97179000D03*
%TD*%
D12*
%TO.P,C1,2*%
%TO.N,GND*%
X200000000Y-100000000D03*
D13*
X200000000Y-100000000D03*
X201016000Y-100000000D03*
X202032000Y-100000000D03*
X202032000Y-101016000D03*
X201016000Y-101016000D03*
X200000000Y-101016000D03*
X200000000Y-102032000D03*
X201016000Y-102032000D03*
X202032000Y-102032000D03*
X200000000Y-98984000D03*
X201016000Y-98984000D03*
X202032000Y-98984000D03*
X202032000Y-97968000D03*
X201016000Y-97968000D03*
X200000000Y-97968000D03*
X198984000Y-97968000D03*
X198984000Y-98984000D03*
X198984000Y-100000000D03*
X198984000Y-101016000D03*
X198984000Y-102032000D03*
X197968000Y-102032000D03*
X197968000Y-101016000D03*
X197968000Y-100000000D03*
X197968000Y-98984000D03*
X197968000Y-97968000D03*
%TD*%
D10*
%TO.P,H3,1*%
%TO.N,GND*%
X192000000Y-108000000D03*
%TD*%
%TO.P,H2,1*%
%TO.N,GND*%
X192000000Y-92000000D03*
%TD*%
D14*
%TO.P,TP2,1*%
%TO.N,GND*%
X201803000Y-93472000D03*
%TD*%
%TO.P,TP1,1*%
%TO.N,Net-(C1-Pad1)*%
X197485000Y-93345000D03*
%TD*%
D15*
%TO.N,GND*%
X204000000Y-100000000D03*
X205000000Y-103000000D03*
X192000000Y-95000000D03*
X191000000Y-105000000D03*
%TD*%
D16*
%TO.N,GND*%
X204000000Y-100000000D02*
X200000000Y-100000000D01*
%TD*%
D17*
%TO.N,GND*%
G36*
X190548228Y-89785742D02*
G01*
X190332106Y-90152501D01*
X192000000Y-91820395D01*
X193667894Y-90152501D01*
X193451772Y-89785742D01*
X193211512Y-89660000D01*
X206783476Y-89660000D01*
X206548228Y-89785742D01*
X206332106Y-90152501D01*
X208000000Y-91820395D01*
X209667894Y-90152501D01*
X209451772Y-89785742D01*
X209211512Y-89660000D01*
X210340000Y-89660000D01*
X210340000Y-90783477D01*
X210214258Y-90548228D01*
X209847499Y-90332106D01*
X208179605Y-92000000D01*
X209847499Y-93667894D01*
X210214258Y-93451772D01*
X210340000Y-93211511D01*
X210340001Y-106783478D01*
X210214258Y-106548228D01*
X209847499Y-106332106D01*
X208179605Y-108000000D01*
X209847499Y-109667894D01*
X210214258Y-109451772D01*
X210340001Y-109211510D01*
X210340001Y-110340000D01*
X209216524Y-110340000D01*
X209451772Y-110214258D01*
X209667894Y-109847499D01*
X208000000Y-108179605D01*
X206332106Y-109847499D01*
X206548228Y-110214258D01*
X206788488Y-110340000D01*
X193216524Y-110340000D01*
X193451772Y-110214258D01*
X193667894Y-109847499D01*
X192000000Y-108179605D01*
X190332106Y-109847499D01*
X190548228Y-110214258D01*
X190788488Y-110340000D01*
X189660000Y-110340000D01*
X189660000Y-109216524D01*
X189785742Y-109451772D01*
X190152501Y-109667894D01*
X191820395Y-108000000D01*
X192179605Y-108000000D01*
X193847499Y-109667894D01*
X194214258Y-109451772D01*
X194454938Y-108991895D01*
X194601275Y-108493902D01*
X194643509Y-108023071D01*
X205352352Y-108023071D01*
X205407727Y-108539159D01*
X205562721Y-109034526D01*
X205785742Y-109451772D01*
X206152501Y-109667894D01*
X207820395Y-108000000D01*
X206152501Y-106332106D01*
X205785742Y-106548228D01*
X205545062Y-107008105D01*
X205398725Y-107506098D01*
X205352352Y-108023071D01*
X194643509Y-108023071D01*
X194647648Y-107976929D01*
X194592273Y-107460841D01*
X194437279Y-106965474D01*
X194214258Y-106548228D01*
X193847499Y-106332106D01*
X192179605Y-108000000D01*
X191820395Y-108000000D01*
X190152501Y-106332106D01*
X189785742Y-106548228D01*
X189660000Y-106788488D01*
X189660000Y-106152501D01*
X190332106Y-106152501D01*
X192000000Y-107820395D01*
X193667894Y-106152501D01*
X206332106Y-106152501D01*
X208000000Y-107820395D01*
X209667894Y-106152501D01*
X209451772Y-105785742D01*
X208991895Y-105545062D01*
X208493902Y-105398725D01*
X207976929Y-105352352D01*
X207460841Y-105407727D01*
X206965474Y-105562721D01*
X206548228Y-105785742D01*
X206332106Y-106152501D01*
X193667894Y-106152501D01*
X193451772Y-105785742D01*
X192991895Y-105545062D01*
X192493902Y-105398725D01*
X191976929Y-105352352D01*
X191460841Y-105407727D01*
X190965474Y-105562721D01*
X190548228Y-105785742D01*
X190332106Y-106152501D01*
X189660000Y-106152501D01*
X189660000Y-104156486D01*
X191484250Y-104154000D01*
X191643000Y-103995250D01*
X191643000Y-102846000D01*
X191897000Y-102846000D01*
X191897000Y-103995250D01*
X192055750Y-104154000D01*
X194310000Y-104157072D01*
X194434482Y-104144812D01*
X194554180Y-104108502D01*
X194664494Y-104049537D01*
X194761185Y-103970185D01*
X194840537Y-103873494D01*
X194899502Y-103763180D01*
X194935812Y-103643482D01*
X194948072Y-103519000D01*
X194945000Y-103004750D01*
X194786250Y-102846000D01*
X191897000Y-102846000D01*
X191643000Y-102846000D01*
X191623000Y-102846000D01*
X191623000Y-102592000D01*
X191643000Y-102592000D01*
X191643000Y-101442750D01*
X191897000Y-101442750D01*
X191897000Y-102592000D01*
X194786250Y-102592000D01*
X194945000Y-102433250D01*
X194948072Y-101919000D01*
X194935812Y-101794518D01*
X194899502Y-101674820D01*
X194840537Y-101564506D01*
X194761185Y-101467815D01*
X194664494Y-101388463D01*
X194554180Y-101329498D01*
X194434482Y-101293188D01*
X194310000Y-101280928D01*
X192055750Y-101284000D01*
X191897000Y-101442750D01*
X191643000Y-101442750D01*
X191484250Y-101284000D01*
X189660000Y-101281514D01*
X189660000Y-98616486D01*
X191484250Y-98614000D01*
X191643000Y-98455250D01*
X191643000Y-97306000D01*
X191897000Y-97306000D01*
X191897000Y-98455250D01*
X192055750Y-98614000D01*
X194310000Y-98617072D01*
X194434482Y-98604812D01*
X194554180Y-98568502D01*
X194664494Y-98509537D01*
X194761185Y-98430185D01*
X194840537Y-98333494D01*
X194899502Y-98223180D01*
X194935812Y-98103482D01*
X194948072Y-97979000D01*
X194945211Y-97500000D01*
X196861928Y-97500000D01*
X196865000Y-99714250D01*
X197023750Y-99873000D01*
X197090986Y-99873000D01*
X197082887Y-99913998D01*
X197083116Y-100088328D01*
X197090861Y-100127000D01*
X197023750Y-100127000D01*
X196865000Y-100285750D01*
X196861928Y-102500000D01*
X196874188Y-102624482D01*
X196910498Y-102744180D01*
X196969463Y-102854494D01*
X197048815Y-102951185D01*
X197145506Y-103030537D01*
X197255820Y-103089502D01*
X197375518Y-103125812D01*
X197500000Y-103138072D01*
X199714250Y-103135000D01*
X199873000Y-102976250D01*
X199873000Y-102909014D01*
X199913998Y-102917113D01*
X200088328Y-102916884D01*
X200127000Y-102909139D01*
X200127000Y-102976250D01*
X200285750Y-103135000D01*
X202500000Y-103138072D01*
X202624482Y-103125812D01*
X202744180Y-103089502D01*
X202854494Y-103030537D01*
X202951185Y-102951185D01*
X203030537Y-102854494D01*
X203089502Y-102744180D01*
X203125812Y-102624482D01*
X203138072Y-102500000D01*
X203135000Y-100285750D01*
X202976250Y-100127000D01*
X202909014Y-100127000D01*
X202917113Y-100086002D01*
X202916884Y-99911672D01*
X202909139Y-99873000D01*
X202976250Y-99873000D01*
X203135000Y-99714250D01*
X203138072Y-97500000D01*
X203125812Y-97375518D01*
X203089502Y-97255820D01*
X203030537Y-97145506D01*
X202951185Y-97048815D01*
X202854494Y-96969463D01*
X202744180Y-96910498D01*
X202624482Y-96874188D01*
X202500000Y-96861928D01*
X200285750Y-96865000D01*
X200127000Y-97023750D01*
X200127000Y-97090986D01*
X200086002Y-97082887D01*
X199911672Y-97083116D01*
X199873000Y-97090861D01*
X199873000Y-97023750D01*
X199714250Y-96865000D01*
X197500000Y-96861928D01*
X197375518Y-96874188D01*
X197255820Y-96910498D01*
X197145506Y-96969463D01*
X197048815Y-97048815D01*
X196969463Y-97145506D01*
X196910498Y-97255820D01*
X196874188Y-97375518D01*
X196861928Y-97500000D01*
X194945211Y-97500000D01*
X194945000Y-97464750D01*
X194786250Y-97306000D01*
X191897000Y-97306000D01*
X191643000Y-97306000D01*
X191623000Y-97306000D01*
X191623000Y-97052000D01*
X191643000Y-97052000D01*
X191643000Y-95902750D01*
X191897000Y-95902750D01*
X191897000Y-97052000D01*
X194786250Y-97052000D01*
X194945000Y-96893250D01*
X194948072Y-96379000D01*
X194935812Y-96254518D01*
X194899502Y-96134820D01*
X194840537Y-96024506D01*
X194761185Y-95927815D01*
X194664494Y-95848463D01*
X194554180Y-95789498D01*
X194434482Y-95753188D01*
X194310000Y-95740928D01*
X192055750Y-95744000D01*
X191897000Y-95902750D01*
X191643000Y-95902750D01*
X191484250Y-95744000D01*
X189660000Y-95741514D01*
X189660000Y-93847499D01*
X190332106Y-93847499D01*
X190548228Y-94214258D01*
X191008105Y-94454938D01*
X191506098Y-94601275D01*
X192023071Y-94647648D01*
X192539159Y-94592273D01*
X193034526Y-94437279D01*
X193451772Y-94214258D01*
X193667894Y-93847499D01*
X192000000Y-92179605D01*
X190332106Y-93847499D01*
X189660000Y-93847499D01*
X189660000Y-93216524D01*
X189785742Y-93451772D01*
X190152501Y-93667894D01*
X191820395Y-92000000D01*
X192179605Y-92000000D01*
X193847499Y-93667894D01*
X194214258Y-93451772D01*
X194354415Y-93183967D01*
X195850000Y-93183967D01*
X195850000Y-93506033D01*
X195912832Y-93821912D01*
X196036082Y-94119463D01*
X196215013Y-94387252D01*
X196442748Y-94614987D01*
X196710537Y-94793918D01*
X197008088Y-94917168D01*
X197323967Y-94980000D01*
X197646033Y-94980000D01*
X197961912Y-94917168D01*
X198259463Y-94793918D01*
X198527252Y-94614987D01*
X198534826Y-94607413D01*
X200847192Y-94607413D01*
X200942956Y-94871814D01*
X201232571Y-95012704D01*
X201544108Y-95094384D01*
X201865595Y-95113718D01*
X202184675Y-95069961D01*
X202489088Y-94964795D01*
X202663044Y-94871814D01*
X202758808Y-94607413D01*
X201803000Y-93651605D01*
X200847192Y-94607413D01*
X198534826Y-94607413D01*
X198754987Y-94387252D01*
X198933918Y-94119463D01*
X199057168Y-93821912D01*
X199114318Y-93534595D01*
X200161282Y-93534595D01*
X200205039Y-93853675D01*
X200310205Y-94158088D01*
X200403186Y-94332044D01*
X200667587Y-94427808D01*
X201623395Y-93472000D01*
X201982605Y-93472000D01*
X202938413Y-94427808D01*
X203202814Y-94332044D01*
X203343704Y-94042429D01*
X203394811Y-93847499D01*
X206332106Y-93847499D01*
X206548228Y-94214258D01*
X207008105Y-94454938D01*
X207506098Y-94601275D01*
X208023071Y-94647648D01*
X208539159Y-94592273D01*
X209034526Y-94437279D01*
X209451772Y-94214258D01*
X209667894Y-93847499D01*
X208000000Y-92179605D01*
X206332106Y-93847499D01*
X203394811Y-93847499D01*
X203425384Y-93730892D01*
X203444718Y-93409405D01*
X203400961Y-93090325D01*
X203295795Y-92785912D01*
X203202814Y-92611956D01*
X202938413Y-92516192D01*
X201982605Y-93472000D01*
X201623395Y-93472000D01*
X200667587Y-92516192D01*
X200403186Y-92611956D01*
X200262296Y-92901571D01*
X200180616Y-93213108D01*
X200161282Y-93534595D01*
X199114318Y-93534595D01*
X199120000Y-93506033D01*
X199120000Y-93183967D01*
X199057168Y-92868088D01*
X198933918Y-92570537D01*
X198777598Y-92336587D01*
X200847192Y-92336587D01*
X201803000Y-93292395D01*
X202758808Y-92336587D01*
X202663044Y-92072186D01*
X202562083Y-92023071D01*
X205352352Y-92023071D01*
X205407727Y-92539159D01*
X205562721Y-93034526D01*
X205785742Y-93451772D01*
X206152501Y-93667894D01*
X207820395Y-92000000D01*
X206152501Y-90332106D01*
X205785742Y-90548228D01*
X205545062Y-91008105D01*
X205398725Y-91506098D01*
X205352352Y-92023071D01*
X202562083Y-92023071D01*
X202373429Y-91931296D01*
X202061892Y-91849616D01*
X201740405Y-91830282D01*
X201421325Y-91874039D01*
X201116912Y-91979205D01*
X200942956Y-92072186D01*
X200847192Y-92336587D01*
X198777598Y-92336587D01*
X198754987Y-92302748D01*
X198527252Y-92075013D01*
X198259463Y-91896082D01*
X197961912Y-91772832D01*
X197646033Y-91710000D01*
X197323967Y-91710000D01*
X197008088Y-91772832D01*
X196710537Y-91896082D01*
X196442748Y-92075013D01*
X196215013Y-92302748D01*
X196036082Y-92570537D01*
X195912832Y-92868088D01*
X195850000Y-93183967D01*
X194354415Y-93183967D01*
X194454938Y-92991895D01*
X194601275Y-92493902D01*
X194647648Y-91976929D01*
X194592273Y-91460841D01*
X194437279Y-90965474D01*
X194214258Y-90548228D01*
X193847499Y-90332106D01*
X192179605Y-92000000D01*
X191820395Y-92000000D01*
X190152501Y-90332106D01*
X189785742Y-90548228D01*
X189660000Y-90788488D01*
X189660000Y-89660000D01*
X190783476Y-89660000D01*
X190548228Y-89785742D01*
G37*
X190548228Y-89785742D02*
X190332106Y-90152501D01*
X192000000Y-91820395D01*
X193667894Y-90152501D01*
X193451772Y-89785742D01*
X193211512Y-89660000D01*
X206783476Y-89660000D01*
X206548228Y-89785742D01*
X206332106Y-90152501D01*
X208000000Y-91820395D01*
X209667894Y-90152501D01*
X209451772Y-89785742D01*
X209211512Y-89660000D01*
X210340000Y-89660000D01*
X210340000Y-90783477D01*
X210214258Y-90548228D01*
X209847499Y-90332106D01*
X208179605Y-92000000D01*
X209847499Y-93667894D01*
X210214258Y-93451772D01*
X210340000Y-93211511D01*
X210340001Y-106783478D01*
X210214258Y-106548228D01*
X209847499Y-106332106D01*
X208179605Y-108000000D01*
X209847499Y-109667894D01*
X210214258Y-109451772D01*
X210340001Y-109211510D01*
X210340001Y-110340000D01*
X209216524Y-110340000D01*
X209451772Y-110214258D01*
X209667894Y-109847499D01*
X208000000Y-108179605D01*
X206332106Y-109847499D01*
X206548228Y-110214258D01*
X206788488Y-110340000D01*
X193216524Y-110340000D01*
X193451772Y-110214258D01*
X193667894Y-109847499D01*
X192000000Y-108179605D01*
X190332106Y-109847499D01*
X190548228Y-110214258D01*
X190788488Y-110340000D01*
X189660000Y-110340000D01*
X189660000Y-109216524D01*
X189785742Y-109451772D01*
X190152501Y-109667894D01*
X191820395Y-108000000D01*
X192179605Y-108000000D01*
X193847499Y-109667894D01*
X194214258Y-109451772D01*
X194454938Y-108991895D01*
X194601275Y-108493902D01*
X194643509Y-108023071D01*
X205352352Y-108023071D01*
X205407727Y-108539159D01*
X205562721Y-109034526D01*
X205785742Y-109451772D01*
X206152501Y-109667894D01*
X207820395Y-108000000D01*
X206152501Y-106332106D01*
X205785742Y-106548228D01*
X205545062Y-107008105D01*
X205398725Y-107506098D01*
X205352352Y-108023071D01*
X194643509Y-108023071D01*
X194647648Y-107976929D01*
X194592273Y-107460841D01*
X194437279Y-106965474D01*
X194214258Y-106548228D01*
X193847499Y-106332106D01*
X192179605Y-108000000D01*
X191820395Y-108000000D01*
X190152501Y-106332106D01*
X189785742Y-106548228D01*
X189660000Y-106788488D01*
X189660000Y-106152501D01*
X190332106Y-106152501D01*
X192000000Y-107820395D01*
X193667894Y-106152501D01*
X206332106Y-106152501D01*
X208000000Y-107820395D01*
X209667894Y-106152501D01*
X209451772Y-105785742D01*
X208991895Y-105545062D01*
X208493902Y-105398725D01*
X207976929Y-105352352D01*
X207460841Y-105407727D01*
X206965474Y-105562721D01*
X206548228Y-105785742D01*
X206332106Y-106152501D01*
X193667894Y-106152501D01*
X193451772Y-105785742D01*
X192991895Y-105545062D01*
X192493902Y-105398725D01*
X191976929Y-105352352D01*
X191460841Y-105407727D01*
X190965474Y-105562721D01*
X190548228Y-105785742D01*
X190332106Y-106152501D01*
X189660000Y-106152501D01*
X189660000Y-104156486D01*
X191484250Y-104154000D01*
X191643000Y-103995250D01*
X191643000Y-102846000D01*
X191897000Y-102846000D01*
X191897000Y-103995250D01*
X192055750Y-104154000D01*
X194310000Y-104157072D01*
X194434482Y-104144812D01*
X194554180Y-104108502D01*
X194664494Y-104049537D01*
X194761185Y-103970185D01*
X194840537Y-103873494D01*
X194899502Y-103763180D01*
X194935812Y-103643482D01*
X194948072Y-103519000D01*
X194945000Y-103004750D01*
X194786250Y-102846000D01*
X191897000Y-102846000D01*
X191643000Y-102846000D01*
X191623000Y-102846000D01*
X191623000Y-102592000D01*
X191643000Y-102592000D01*
X191643000Y-101442750D01*
X191897000Y-101442750D01*
X191897000Y-102592000D01*
X194786250Y-102592000D01*
X194945000Y-102433250D01*
X194948072Y-101919000D01*
X194935812Y-101794518D01*
X194899502Y-101674820D01*
X194840537Y-101564506D01*
X194761185Y-101467815D01*
X194664494Y-101388463D01*
X194554180Y-101329498D01*
X194434482Y-101293188D01*
X194310000Y-101280928D01*
X192055750Y-101284000D01*
X191897000Y-101442750D01*
X191643000Y-101442750D01*
X191484250Y-101284000D01*
X189660000Y-101281514D01*
X189660000Y-98616486D01*
X191484250Y-98614000D01*
X191643000Y-98455250D01*
X191643000Y-97306000D01*
X191897000Y-97306000D01*
X191897000Y-98455250D01*
X192055750Y-98614000D01*
X194310000Y-98617072D01*
X194434482Y-98604812D01*
X194554180Y-98568502D01*
X194664494Y-98509537D01*
X194761185Y-98430185D01*
X194840537Y-98333494D01*
X194899502Y-98223180D01*
X194935812Y-98103482D01*
X194948072Y-97979000D01*
X194945211Y-97500000D01*
X196861928Y-97500000D01*
X196865000Y-99714250D01*
X197023750Y-99873000D01*
X197090986Y-99873000D01*
X197082887Y-99913998D01*
X197083116Y-100088328D01*
X197090861Y-100127000D01*
X197023750Y-100127000D01*
X196865000Y-100285750D01*
X196861928Y-102500000D01*
X196874188Y-102624482D01*
X196910498Y-102744180D01*
X196969463Y-102854494D01*
X197048815Y-102951185D01*
X197145506Y-103030537D01*
X197255820Y-103089502D01*
X197375518Y-103125812D01*
X197500000Y-103138072D01*
X199714250Y-103135000D01*
X199873000Y-102976250D01*
X199873000Y-102909014D01*
X199913998Y-102917113D01*
X200088328Y-102916884D01*
X200127000Y-102909139D01*
X200127000Y-102976250D01*
X200285750Y-103135000D01*
X202500000Y-103138072D01*
X202624482Y-103125812D01*
X202744180Y-103089502D01*
X202854494Y-103030537D01*
X202951185Y-102951185D01*
X203030537Y-102854494D01*
X203089502Y-102744180D01*
X203125812Y-102624482D01*
X203138072Y-102500000D01*
X203135000Y-100285750D01*
X202976250Y-100127000D01*
X202909014Y-100127000D01*
X202917113Y-100086002D01*
X202916884Y-99911672D01*
X202909139Y-99873000D01*
X202976250Y-99873000D01*
X203135000Y-99714250D01*
X203138072Y-97500000D01*
X203125812Y-97375518D01*
X203089502Y-97255820D01*
X203030537Y-97145506D01*
X202951185Y-97048815D01*
X202854494Y-96969463D01*
X202744180Y-96910498D01*
X202624482Y-96874188D01*
X202500000Y-96861928D01*
X200285750Y-96865000D01*
X200127000Y-97023750D01*
X200127000Y-97090986D01*
X200086002Y-97082887D01*
X199911672Y-97083116D01*
X199873000Y-97090861D01*
X199873000Y-97023750D01*
X199714250Y-96865000D01*
X197500000Y-96861928D01*
X197375518Y-96874188D01*
X197255820Y-96910498D01*
X197145506Y-96969463D01*
X197048815Y-97048815D01*
X196969463Y-97145506D01*
X196910498Y-97255820D01*
X196874188Y-97375518D01*
X196861928Y-97500000D01*
X194945211Y-97500000D01*
X194945000Y-97464750D01*
X194786250Y-97306000D01*
X191897000Y-97306000D01*
X191643000Y-97306000D01*
X191623000Y-97306000D01*
X191623000Y-97052000D01*
X191643000Y-97052000D01*
X191643000Y-95902750D01*
X191897000Y-95902750D01*
X191897000Y-97052000D01*
X194786250Y-97052000D01*
X194945000Y-96893250D01*
X194948072Y-96379000D01*
X194935812Y-96254518D01*
X194899502Y-96134820D01*
X194840537Y-96024506D01*
X194761185Y-95927815D01*
X194664494Y-95848463D01*
X194554180Y-95789498D01*
X194434482Y-95753188D01*
X194310000Y-95740928D01*
X192055750Y-95744000D01*
X191897000Y-95902750D01*
X191643000Y-95902750D01*
X191484250Y-95744000D01*
X189660000Y-95741514D01*
X189660000Y-93847499D01*
X190332106Y-93847499D01*
X190548228Y-94214258D01*
X191008105Y-94454938D01*
X191506098Y-94601275D01*
X192023071Y-94647648D01*
X192539159Y-94592273D01*
X193034526Y-94437279D01*
X193451772Y-94214258D01*
X193667894Y-93847499D01*
X192000000Y-92179605D01*
X190332106Y-93847499D01*
X189660000Y-93847499D01*
X189660000Y-93216524D01*
X189785742Y-93451772D01*
X190152501Y-93667894D01*
X191820395Y-92000000D01*
X192179605Y-92000000D01*
X193847499Y-93667894D01*
X194214258Y-93451772D01*
X194354415Y-93183967D01*
X195850000Y-93183967D01*
X195850000Y-93506033D01*
X195912832Y-93821912D01*
X196036082Y-94119463D01*
X196215013Y-94387252D01*
X196442748Y-94614987D01*
X196710537Y-94793918D01*
X197008088Y-94917168D01*
X197323967Y-94980000D01*
X197646033Y-94980000D01*
X197961912Y-94917168D01*
X198259463Y-94793918D01*
X198527252Y-94614987D01*
X198534826Y-94607413D01*
X200847192Y-94607413D01*
X200942956Y-94871814D01*
X201232571Y-95012704D01*
X201544108Y-95094384D01*
X201865595Y-95113718D01*
X202184675Y-95069961D01*
X202489088Y-94964795D01*
X202663044Y-94871814D01*
X202758808Y-94607413D01*
X201803000Y-93651605D01*
X200847192Y-94607413D01*
X198534826Y-94607413D01*
X198754987Y-94387252D01*
X198933918Y-94119463D01*
X199057168Y-93821912D01*
X199114318Y-93534595D01*
X200161282Y-93534595D01*
X200205039Y-93853675D01*
X200310205Y-94158088D01*
X200403186Y-94332044D01*
X200667587Y-94427808D01*
X201623395Y-93472000D01*
X201982605Y-93472000D01*
X202938413Y-94427808D01*
X203202814Y-94332044D01*
X203343704Y-94042429D01*
X203394811Y-93847499D01*
X206332106Y-93847499D01*
X206548228Y-94214258D01*
X207008105Y-94454938D01*
X207506098Y-94601275D01*
X208023071Y-94647648D01*
X208539159Y-94592273D01*
X209034526Y-94437279D01*
X209451772Y-94214258D01*
X209667894Y-93847499D01*
X208000000Y-92179605D01*
X206332106Y-93847499D01*
X203394811Y-93847499D01*
X203425384Y-93730892D01*
X203444718Y-93409405D01*
X203400961Y-93090325D01*
X203295795Y-92785912D01*
X203202814Y-92611956D01*
X202938413Y-92516192D01*
X201982605Y-93472000D01*
X201623395Y-93472000D01*
X200667587Y-92516192D01*
X200403186Y-92611956D01*
X200262296Y-92901571D01*
X200180616Y-93213108D01*
X200161282Y-93534595D01*
X199114318Y-93534595D01*
X199120000Y-93506033D01*
X199120000Y-93183967D01*
X199057168Y-92868088D01*
X198933918Y-92570537D01*
X198777598Y-92336587D01*
X200847192Y-92336587D01*
X201803000Y-93292395D01*
X202758808Y-92336587D01*
X202663044Y-92072186D01*
X202562083Y-92023071D01*
X205352352Y-92023071D01*
X205407727Y-92539159D01*
X205562721Y-93034526D01*
X205785742Y-93451772D01*
X206152501Y-93667894D01*
X207820395Y-92000000D01*
X206152501Y-90332106D01*
X205785742Y-90548228D01*
X205545062Y-91008105D01*
X205398725Y-91506098D01*
X205352352Y-92023071D01*
X202562083Y-92023071D01*
X202373429Y-91931296D01*
X202061892Y-91849616D01*
X201740405Y-91830282D01*
X201421325Y-91874039D01*
X201116912Y-91979205D01*
X200942956Y-92072186D01*
X200847192Y-92336587D01*
X198777598Y-92336587D01*
X198754987Y-92302748D01*
X198527252Y-92075013D01*
X198259463Y-91896082D01*
X197961912Y-91772832D01*
X197646033Y-91710000D01*
X197323967Y-91710000D01*
X197008088Y-91772832D01*
X196710537Y-91896082D01*
X196442748Y-92075013D01*
X196215013Y-92302748D01*
X196036082Y-92570537D01*
X195912832Y-92868088D01*
X195850000Y-93183967D01*
X194354415Y-93183967D01*
X194454938Y-92991895D01*
X194601275Y-92493902D01*
X194647648Y-91976929D01*
X194592273Y-91460841D01*
X194437279Y-90965474D01*
X194214258Y-90548228D01*
X193847499Y-90332106D01*
X192179605Y-92000000D01*
X191820395Y-92000000D01*
X190152501Y-90332106D01*
X189785742Y-90548228D01*
X189660000Y-90788488D01*
X189660000Y-89660000D01*
X190783476Y-89660000D01*
X190548228Y-89785742D01*
G36*
X200127000Y-101951110D02*
G01*
X200127000Y-102112890D01*
X200016971Y-102222919D01*
X200000000Y-102205948D01*
X199983029Y-102222919D01*
X199873000Y-102112890D01*
X199873000Y-101951110D01*
X199923009Y-101901101D01*
X200076789Y-101900899D01*
X200127000Y-101951110D01*
G37*
X200127000Y-101951110D02*
X200127000Y-102112890D01*
X200016971Y-102222919D01*
X200000000Y-102205948D01*
X199983029Y-102222919D01*
X199873000Y-102112890D01*
X199873000Y-101951110D01*
X199923009Y-101901101D01*
X200076789Y-101900899D01*
X200127000Y-101951110D01*
G36*
X200127000Y-100935110D02*
G01*
X200127000Y-101096890D01*
X200076991Y-101146899D01*
X199923211Y-101147101D01*
X199873000Y-101096890D01*
X199873000Y-100935110D01*
X199923009Y-100885101D01*
X200076789Y-100884899D01*
X200127000Y-100935110D01*
G37*
X200127000Y-100935110D02*
X200127000Y-101096890D01*
X200076991Y-101146899D01*
X199923211Y-101147101D01*
X199873000Y-101096890D01*
X199873000Y-100935110D01*
X199923009Y-100885101D01*
X200076789Y-100884899D01*
X200127000Y-100935110D01*
G36*
X200130899Y-99923009D02*
G01*
X200131101Y-100076789D01*
X200076991Y-100130899D01*
X199923211Y-100131101D01*
X199869101Y-100076991D01*
X199868899Y-99923211D01*
X199923009Y-99869101D01*
X200076789Y-99868899D01*
X200130899Y-99923009D01*
G37*
X200130899Y-99923009D02*
X200131101Y-100076789D01*
X200076991Y-100130899D01*
X199923211Y-100131101D01*
X199869101Y-100076991D01*
X199868899Y-99923211D01*
X199923009Y-99869101D01*
X200076789Y-99868899D01*
X200130899Y-99923009D01*
G36*
X199114899Y-99923009D02*
G01*
X199115101Y-100076789D01*
X199064890Y-100127000D01*
X198903110Y-100127000D01*
X198853101Y-100076991D01*
X198852899Y-99923211D01*
X198903110Y-99873000D01*
X199064890Y-99873000D01*
X199114899Y-99923009D01*
G37*
X199114899Y-99923009D02*
X199115101Y-100076789D01*
X199064890Y-100127000D01*
X198903110Y-100127000D01*
X198853101Y-100076991D01*
X198852899Y-99923211D01*
X198903110Y-99873000D01*
X199064890Y-99873000D01*
X199114899Y-99923009D01*
G36*
X198098899Y-99923009D02*
G01*
X198099101Y-100076789D01*
X198048890Y-100127000D01*
X197887110Y-100127000D01*
X197777081Y-100016971D01*
X197794052Y-100000000D01*
X197777081Y-99983029D01*
X197887110Y-99873000D01*
X198048890Y-99873000D01*
X198098899Y-99923009D01*
G37*
X198098899Y-99923009D02*
X198099101Y-100076789D01*
X198048890Y-100127000D01*
X197887110Y-100127000D01*
X197777081Y-100016971D01*
X197794052Y-100000000D01*
X197777081Y-99983029D01*
X197887110Y-99873000D01*
X198048890Y-99873000D01*
X198098899Y-99923009D01*
G36*
X202222919Y-99983029D02*
G01*
X202205948Y-100000000D01*
X202222919Y-100016971D01*
X202112890Y-100127000D01*
X201951110Y-100127000D01*
X201901101Y-100076991D01*
X201900899Y-99923211D01*
X201951110Y-99873000D01*
X202112890Y-99873000D01*
X202222919Y-99983029D01*
G37*
X202222919Y-99983029D02*
X202205948Y-100000000D01*
X202222919Y-100016971D01*
X202112890Y-100127000D01*
X201951110Y-100127000D01*
X201901101Y-100076991D01*
X201900899Y-99923211D01*
X201951110Y-99873000D01*
X202112890Y-99873000D01*
X202222919Y-99983029D01*
G36*
X201146899Y-99923009D02*
G01*
X201147101Y-100076789D01*
X201096890Y-100127000D01*
X200935110Y-100127000D01*
X200885101Y-100076991D01*
X200884899Y-99923211D01*
X200935110Y-99873000D01*
X201096890Y-99873000D01*
X201146899Y-99923009D01*
G37*
X201146899Y-99923009D02*
X201147101Y-100076789D01*
X201096890Y-100127000D01*
X200935110Y-100127000D01*
X200885101Y-100076991D01*
X200884899Y-99923211D01*
X200935110Y-99873000D01*
X201096890Y-99873000D01*
X201146899Y-99923009D01*
G36*
X200127000Y-98903110D02*
G01*
X200127000Y-99064890D01*
X200076991Y-99114899D01*
X199923211Y-99115101D01*
X199873000Y-99064890D01*
X199873000Y-98903110D01*
X199923009Y-98853101D01*
X200076789Y-98852899D01*
X200127000Y-98903110D01*
G37*
X200127000Y-98903110D02*
X200127000Y-99064890D01*
X200076991Y-99114899D01*
X199923211Y-99115101D01*
X199873000Y-99064890D01*
X199873000Y-98903110D01*
X199923009Y-98853101D01*
X200076789Y-98852899D01*
X200127000Y-98903110D01*
G36*
X200127000Y-97887110D02*
G01*
X200127000Y-98048890D01*
X200076991Y-98098899D01*
X199923211Y-98099101D01*
X199873000Y-98048890D01*
X199873000Y-97887110D01*
X199983029Y-97777081D01*
X200000000Y-97794052D01*
X200016971Y-97777081D01*
X200127000Y-97887110D01*
G37*
X200127000Y-97887110D02*
X200127000Y-98048890D01*
X200076991Y-98098899D01*
X199923211Y-98099101D01*
X199873000Y-98048890D01*
X199873000Y-97887110D01*
X199983029Y-97777081D01*
X200000000Y-97794052D01*
X200016971Y-97777081D01*
X200127000Y-97887110D01*
%TD*%
M02*
