M48
; DRILL file {KiCad (5.1.6-0-10_14)} date Tuesday, January 05, 2021 at 12:33:53 PM
; FORMAT={-:-/ absolute / inch / decimal}
; #@! TF.CreationDate,2021-01-05T12:33:53-08:00
; #@! TF.GenerationSoftware,Kicad,Pcbnew,(5.1.6-0-10_14)
; #@! TF.FileFunction,Plated,1,2,PTH
FMAT,2
INCH
T1C0.0079
T2C0.0157
T3C0.0394
T4C0.1213
%
G90
G05
T1
X7.714Y-3.777
X7.714Y-3.817
X7.714Y-3.857
X7.714Y-3.897
X7.714Y-3.937
X7.714Y-3.977
X7.714Y-4.017
X7.714Y-4.057
X7.714Y-4.097
X7.754Y-3.777
X7.754Y-3.817
X7.754Y-3.857
X7.754Y-3.897
X7.754Y-3.937
X7.754Y-3.977
X7.754Y-4.017
X7.754Y-4.057
X7.754Y-4.097
X7.794Y-3.777
X7.794Y-3.817
X7.794Y-3.857
X7.794Y-3.897
X7.794Y-3.937
X7.794Y-3.977
X7.794Y-4.017
X7.794Y-4.057
X7.794Y-4.097
X7.834Y-3.777
X7.834Y-3.817
X7.834Y-3.857
X7.834Y-3.897
X7.834Y-3.937
X7.834Y-3.977
X7.834Y-4.017
X7.834Y-4.057
X7.834Y-4.097
X7.874Y-3.777
X7.874Y-3.817
X7.874Y-3.857
X7.874Y-3.897
X7.874Y-3.937
X7.874Y-3.977
X7.874Y-4.017
X7.874Y-4.057
X7.874Y-4.097
X7.914Y-3.777
X7.914Y-3.817
X7.914Y-3.857
X7.914Y-3.897
X7.914Y-3.937
X7.914Y-3.977
X7.914Y-4.017
X7.914Y-4.057
X7.914Y-4.097
X7.954Y-3.777
X7.954Y-3.817
X7.954Y-3.857
X7.954Y-3.897
X7.954Y-3.937
X7.954Y-3.977
X7.954Y-4.017
X7.954Y-4.057
X7.954Y-4.097
X7.994Y-3.777
X7.994Y-3.817
X7.994Y-3.857
X7.994Y-3.897
X7.994Y-3.937
X7.994Y-3.977
X7.994Y-4.017
X7.994Y-4.057
X7.994Y-4.097
X8.034Y-3.777
X8.034Y-3.817
X8.034Y-3.857
X8.034Y-3.897
X8.034Y-3.937
X8.034Y-3.977
X8.034Y-4.017
X8.034Y-4.057
X8.034Y-4.097
X8.1643Y-3.9
X8.1957Y-3.9
T2
X7.2Y-3.835
X7.2Y-4.065
X7.415Y-3.735
X7.525Y-4.035
X8.36Y-4.05
T3
X7.165Y-3.58
X7.155Y-4.295
T4
X8.189Y-4.252
X7.5591Y-4.252
X7.5591Y-3.622
X8.189Y-3.622
T0
M30
